<?xml version="1.0" encoding="utf-8"?>
<!-- Generator: Adobe Illustrator 16.0.0, SVG Export Plug-In . SVG Version: 6.00 Build 0)  -->
<!DOCTYPE svg PUBLIC "-//W3C//DTD SVG 1.1//EN" "http://www.w3.org/Graphics/SVG/1.1/DTD/svg11.dtd">
<svg version="1.1" id="Layer_1" xmlns="http://www.w3.org/2000/svg" xmlns:xlink="http://www.w3.org/1999/xlink" x="0px" y="0px"
	 width="312.28px" height="80px" viewBox="0 0 312.28 80" enable-background="new 0 0 312.28 80" xml:space="preserve">
<g>
	<path fill="#359EA2" d="M65.417,34.853c-0.065,4.102-1.172,8.447-3.32,13.037c-4.46,9.603-10.905,16.683-19.336,21.24
		c-4.883,2.669-10.01,3.971-15.381,3.906c-5.632-0.065-10.645-1.595-15.039-4.59c-1.953-1.302-3.32-2.75-4.102-4.346
		c-0.554-1.106-0.83-2.229-0.83-3.369c0.032-2.344,1.009-3.857,2.93-4.541c0.391-0.163,0.667-0.195,0.83-0.098
		c0.195,0.099,0.098,0.474-0.293,1.127l-0.391,0.588c-0.717,1.209-1.074,2.188-1.074,2.939c0.064,2.417,1.644,4.541,4.736,6.369
		c4.134,2.385,8.545,3.577,13.232,3.577c4.557-0.033,9-1.173,13.33-3.424c7.552-3.914,13.525-10.305,17.92-19.176
		c2.376-4.761,3.548-9.18,3.516-13.257c0-4.892-1.416-8.887-4.248-11.985c-3.32-3.619-7.568-5.43-12.744-5.43
		c-7.683,0-15.332,2.918-22.949,8.754c-2.734,2.055-4.867,4.158-6.396,6.31c-1.53,2.151-2.295,4.059-2.295,5.721
		c0,1.598,0.35,2.992,1.05,4.182c0.699,1.19,1.847,2.258,3.442,3.204c1.465,0.88,3.353,1.549,5.664,2.005
		c3.06,0.587,6.314,0.782,9.766,0.587c3.157-0.163,6.087-0.537,8.789-1.123c0.943-0.325,2.376-0.716,4.297-1.172
		c0.684-0.098,1.627-0.065,2.832,0.098c0.293,0.033,0.513,0.13,0.659,0.293c0.146,0.163,0.171,0.375,0.073,0.635
		c-0.554,1.074-1.97,2.083-4.248,3.027c-1.693,0.684-4.086,1.27-7.178,1.758c-4.818,0.749-9.408,0.814-13.77,0.195
		c-3.549-0.488-6.511-1.416-8.887-2.783c-2.116-1.204-3.76-2.75-4.932-4.639c-1.074-1.79-1.596-3.874-1.563-6.25
		c0-2.018,0.667-4.15,2.002-6.396c1.627-2.734,4.036-5.354,7.227-7.861c8.626-6.803,17.432-10.172,26.416-10.107
		c6.217,0.033,11.312,2.263,15.283,6.689c1.66,1.855,2.913,3.996,3.76,6.421C65.042,29.393,65.45,32.021,65.417,34.853z"/>
	<path fill="#359EA2" d="M76.16,16.25c0,0.033-0.049,0.456-0.146,1.27c-0.424,2.767-1.123,6.267-2.1,10.498l-0.928,3.857
		c0,0.098-0.017,0.228-0.049,0.391c-0.065,0.033-0.212,0.065-0.439,0.098c-0.554,0.065-0.896-0.065-1.025-0.391
		c0.064-1.66,0.391-5.208,0.977-10.645c0.064-0.781,0.195-1.937,0.391-3.467c0.032-0.521,0.244-1.188,0.635-2.002
		c0.098-0.098,0.521-0.146,1.27-0.146c0.293-0.032,0.586-0.016,0.879,0.049C75.916,15.827,76.094,15.989,76.16,16.25z"/>
	<path fill="#359EA2" d="M111.951,67.568c-0.554,1.335-1.53,2.499-2.93,3.491c-1.4,0.993-2.8,1.505-4.199,1.538
		c-2.019,0.032-3.549-0.635-4.59-2.002c-1.237-1.595-1.872-4.02-1.904-7.275c-0.033-0.618-0.017-1.465,0.049-2.539
		c0.064-1.204,0.098-2.051,0.098-2.539c0-0.944-0.065-1.725-0.195-2.344l-0.146,0.244c-0.261,0.488-0.57,1.188-0.928,2.1
		c-0.554,1.563-1.416,3.906-2.588,7.031c-0.717,1.888-1.384,3.369-2.002,4.443c-0.814,1.399-1.645,2.1-2.49,2.1
		c-0.717,0.032-1.294-0.261-1.733-0.879s-0.708-1.595-0.806-2.93c0.064-1.692,0.13-4.215,0.195-7.568
		c-0.033-1.237-0.163-2.197-0.391-2.881c-0.358,0.55-0.847,1.464-1.465,2.741c-0.619,1.277-1.677,3.679-3.174,7.204
		c-0.684,1.585-1.416,2.831-2.197,3.736c-0.879,1.002-1.774,1.456-2.686,1.358c-0.684-0.065-1.181-0.461-1.489-1.19
		c-0.31-0.729-0.448-1.902-0.415-3.521c0.162-1.878,0.357-4.679,0.586-8.404c0.032-1.134-0.098-2.089-0.391-2.866
		c-0.033-0.064-0.391-0.55-1.074-1.458c0.326-0.971,0.57-1.457,0.732-1.457c0.813,0,1.48,0.456,2.002,1.367
		c0.65,1.074,0.977,2.556,0.977,4.443c0,0.847-0.058,2.141-0.171,3.882c-0.114,1.742-0.188,3.003-0.22,3.784
		c-0.033,1.498-0.017,2.393,0.049,2.686c0.65-0.716,1.285-1.823,1.904-3.32c0.846-2.051,2.197-5.078,4.053-9.082
		c0.391-0.813,1.139-1.839,2.246-3.076c0.846-0.488,1.563-0.391,2.148,0.293c1.009,1.172,1.546,3.06,1.611,5.664
		c0,0.716-0.049,1.693-0.146,2.93c-0.098,1.433-0.146,2.425-0.146,2.979c-0.033,1.302,0.017,2.132,0.148,2.49l0.196-0.292
		c0.525-0.846,1.164-2.194,1.919-4.048c0.613-1.759,1.631-4.383,3.053-7.87c0.293-0.78,0.929-1.805,1.906-3.074
		c0.685-0.488,1.304-0.504,1.857-0.049c0.913,0.749,1.385,2.1,1.418,4.053c0,0.716-0.049,1.693-0.146,2.93
		c-0.098,1.367-0.146,2.344-0.146,2.93c-0.065,2.734,0.309,4.72,1.123,5.957c0.716,1.074,1.839,1.627,3.369,1.66
		c1.627,0.032,3.157-0.684,4.59-2.148c0.325-0.358,0.846-0.879,1.563-1.563c0.455-0.325,0.765-0.488,0.928-0.488
		C112.129,66.771,112.146,67.047,111.951,67.568z"/>
	<path fill="#359EA2" d="M187.781,58.828c0.228,0.163,0.105,0.513-0.366,1.05c-0.473,0.537-1.066,1.05-1.782,1.538
		c-7.064,5.176-14.453,8.936-22.168,11.279c-4.916,1.53-9.587,2.262-14.014,2.197c-4.655-0.033-8.676-0.765-12.061-2.197
		c-2.572-1.074-4.745-2.49-6.519-4.248c-1.774-1.758-3.149-3.857-4.126-6.299c-1.205-3.027-1.774-6.543-1.709-10.547
		c0.064-3.548,0.618-6.868,1.66-9.961c1.334-3.938,3.287-7.52,5.859-10.742c6.478-8.073,15.738-13.558,27.783-16.455
		c5.306-1.27,10.188-1.66,14.648-1.172c4.297,0.456,7.34,1.758,9.131,3.906c1.041,1.27,1.692,2.669,1.953,4.199
		c0.293,1.595,0.113,3.174-0.537,4.736c-1.433,3.548-4.948,6.999-10.547,10.352c-0.977,0.619-2.019,1.188-3.125,1.709
		c-0.488,0.261-1.254,0.57-2.295,0.928c-0.847,0.163-1.709,0.033-2.588-0.391c-0.619-0.293-0.781-0.667-0.488-1.123
		c0.26-0.456,0.846-0.977,1.758-1.563c0.391-0.26,1.367-0.846,2.93-1.758c2.864-1.692,5.191-3.336,6.982-4.932
		c2.246-2.051,3.548-3.938,3.906-5.664c0.293-1.367-0.082-2.686-1.123-3.955c-0.554-0.716-1.563-1.318-3.027-1.807
		c-1.303-0.391-2.849-0.651-4.639-0.781c-3.809-0.26-8.188,0.195-13.135,1.367c-10.938,2.604-19.336,7.65-25.195,15.137
		c-2.246,2.865-3.923,5.876-5.029,9.033c-0.977,2.865-1.514,5.876-1.611,9.033c-0.131,3.386,0.244,6.315,1.123,8.789
		c0.781,2.246,1.953,4.183,3.516,5.811c1.432,1.53,3.287,2.783,5.566,3.76c3.125,1.367,6.787,2.1,10.986,2.197
		c8.04,0.163,16.992-2.327,26.855-7.471c2.181-1.139,4.524-2.539,7.031-4.199c0.586-0.423,1.497-0.944,2.734-1.563
		C187,58.763,187.552,58.698,187.781,58.828z"/>
	<path fill="#359EA2" d="M214.343,60.634c0.098,0.098,0.146,0.277,0.146,0.537c0,1.433-1.074,3.386-3.223,5.859
		c-2.409,2.8-4.802,4.215-7.178,4.248c-1.889,0-3.402-0.57-4.541-1.709c-0.847-0.846-1.481-1.953-1.904-3.32
		c-0.391,0.651-0.814,1.286-1.27,1.904c-1.791,2.409-3.613,3.629-5.469,3.662c-1.335,0.032-2.475-0.586-3.418-1.855
		c-1.14-1.53-1.709-3.662-1.709-6.396c0-4.069,1.367-7.796,4.102-11.182c1.692-2.116,3.564-3.174,5.615-3.174
		c2.376,0.033,3.955,0.798,4.736,2.295c0.781,1.433,0.781,2.637,0,3.613c-0.195,0.228-0.651,0.342-1.367,0.342
		c-0.358,0-0.635-0.081-0.83-0.244c-0.195-0.163-0.326-0.684-0.391-1.563c0-0.293-0.049-0.504-0.146-0.635
		c-0.229-0.391-0.896-0.602-2.002-0.635c-1.27-0.032-2.637,0.993-4.102,3.076c-1.823,2.539-2.783,5.241-2.881,8.105
		c-0.065,1.53,0.122,2.889,0.562,4.077c0.439,1.188,1.05,1.799,1.831,1.831c0.977,0.033,2.148-0.716,3.516-2.246
		c1.074-1.237,1.985-2.604,2.734-4.102c0-0.911,0.064-1.855,0.195-2.832c0.13-0.977,0.342-1.676,0.635-2.1
		c0.195-0.228,0.635-0.276,1.318-0.146c0.228-0.098,0.439-0.114,0.635-0.049c0.032,0,0.13,0.13,0.293,0.391
		c0.13,0.065,0.293,0.195,0.488,0.391c0,0.098-0.065,0.57-0.195,1.416c-0.131,1.042-0.195,2.051-0.195,3.027
		c0.064,1.823,0.455,3.19,1.172,4.102c0.586,0.749,1.448,1.156,2.588,1.221c2.832,0.163,5.696-2.132,8.594-6.885
		C213.301,60.651,213.855,60.309,214.343,60.634z"/>
	<path fill="#359EA2" d="M228.748,65.273c-1.205,2.637-2.914,4.606-5.127,5.908c-1.465,0.879-3.012,1.334-4.639,1.367
		c-1.855,0.032-3.451-0.716-4.785-2.246c-1.889-2.148-2.783-4.997-2.686-8.545c0.032-1.53,0.195-2.864,0.488-4.004
		c0.13-0.488,0.406-1.139,0.83-1.953c0.162-0.163,0.618-0.195,1.367-0.098c0.781,0.13,1.204,0.407,1.27,0.83
		c0.032,0.033-0.082,0.603-0.342,1.709c-0.261,1.237-0.407,2.393-0.439,3.467c-0.098,2.539,0.325,4.639,1.27,6.299
		c0.781,1.302,1.79,1.986,3.027,2.051c2.474,0.13,4.752-0.993,6.836-3.369c0.391-0.423,0.797-0.944,1.221-1.563
		c0.064-0.195,0.211-0.423,0.439-0.684c0.455-0.228,0.862-0.163,1.221,0.195C228.829,64.736,228.845,64.948,228.748,65.273z
		 M216.931,48.574c0,2.019-0.717,3.027-2.148,3.027c-1.433,0-2.148-1.009-2.148-3.027c0-2.018,0.716-3.027,2.148-3.027
		C216.214,45.546,216.931,46.556,216.931,48.574z"/>
	<path fill="#359EA2" d="M249.207,40.517c-0.065,0.196-0.293,0.343-0.683,0.441c-4.132,0.196-9.533,0.278-16.202,0.245l-0.461,2.338
		c-0.777,4.004-1.295,6.902-1.555,8.692c-0.486,3.256-0.745,6.17-0.777,8.742c0,3.32,0.472,5.714,1.416,7.179
		c0.781,1.14,1.953,1.742,3.516,1.807c1.302,0.033,2.62-0.488,3.955-1.563c2.051-1.627,3.906-4.004,5.566-7.129
		c0.098-0.26,0.276-0.586,0.537-0.977c0.553-0.358,0.96-0.423,1.221-0.195c0.195,0.163,0.195,0.537,0,1.123
		c-1.465,3.613-3.354,6.413-5.664,8.398c-1.921,1.692-3.793,2.539-5.615,2.539c-1.889,0.032-3.435-0.537-4.639-1.709
		c-1.303-1.204-2.165-3.027-2.588-5.469c-0.424-2.181-0.505-5.143-0.244-8.887c0.228-3.743,0.928-8.708,2.1-14.893l-3.955-0.049
		c-2.474,0.033-6.136-0.081-10.986-0.342c-0.325-0.032-0.748-0.146-1.27-0.342c-0.162-0.098-0.325-0.504-0.488-1.221
		c-0.098-0.358-0.098-0.667,0-0.928c0.131-0.423,0.57-0.635,1.318-0.635c1.433,0.033,3.988,0.146,7.666,0.342l8.252,0.391
		l0.293-1.221c0.162-0.813,0.342-1.579,0.537-2.295c0.064-0.358,0.228-0.846,0.488-1.465c0.162-0.195,0.602-0.358,1.318-0.488
		c0.488-0.098,0.854,0,1.099,0.292c0.244,0.292,0.301,0.795,0.171,1.509c-0.073,0.487-0.22,1.218-0.438,2.191l-0.245,1.617
		l14.941,0.783c0.228-0.032,0.537-0.016,0.928,0.049C249.141,39.685,249.304,40.06,249.207,40.517z"/>
	<path fill="#359EA2" d="M258.093,65.514c-0.033,0.42-0.31,0.97-0.83,1.648c-2.279,3.168-4.672,4.784-7.178,4.849
		c-1.465,0.032-2.832-0.342-4.102-1.122c-2.539-1.496-4.362-4.244-5.469-8.244c-0.748-2.764-1.139-5.804-1.172-9.121
		c-0.032-7.121,1.025-13.723,3.174-19.804c1.041-2.862,2.115-5.139,3.223-6.829c1.334-2.082,2.75-3.122,4.248-3.122
		c1.529,0,2.701,0.911,3.516,2.731c0.813,1.821,1.188,4.276,1.123,7.365c-0.065,4.358-1.059,9.512-2.979,15.462
		c-2.051,6.374-4.721,11.527-8.008,15.462c0.911,2.049,2.034,3.513,3.369,4.39c0.943,0.618,1.969,0.927,3.076,0.927
		c1.627,0.033,3.304-0.886,5.029-2.756c0.357-0.484,0.943-1.097,1.758-1.838c0.521-0.355,0.879-0.516,1.074-0.484
		C258.077,65.062,258.125,65.223,258.093,65.514z M251.794,33.876c0-1.855-0.18-3.499-0.537-4.932
		c-0.163-0.651-0.366-1.188-0.61-1.611c-0.244-0.423-0.464-0.635-0.659-0.635c-0.293,0.033-0.668,0.317-1.123,0.854
		c-0.456,0.537-0.944,1.245-1.465,2.124c-0.814,1.498-1.645,3.483-2.49,5.957c-1.889,5.664-2.897,11.638-3.027,17.92
		c-0.033,3.451,0.276,6.445,0.928,8.984c1.855-2.539,3.564-5.908,5.127-10.107C250.476,45.595,251.761,39.411,251.794,33.876z"/>
	<path fill="#359EA2" d="M272.839,65.273c-1.205,2.637-2.914,4.606-5.127,5.908c-1.465,0.879-3.012,1.334-4.639,1.367
		c-1.855,0.032-3.451-0.716-4.785-2.246c-1.889-2.148-2.783-4.997-2.686-8.545c0.032-1.53,0.195-2.864,0.488-4.004
		c0.13-0.488,0.406-1.139,0.83-1.953c0.162-0.163,0.618-0.195,1.367-0.098c0.781,0.13,1.204,0.407,1.27,0.83
		c0.032,0.033-0.082,0.603-0.342,1.709c-0.261,1.237-0.407,2.393-0.439,3.467c-0.098,2.539,0.325,4.639,1.27,6.299
		c0.781,1.302,1.79,1.986,3.027,2.051c2.474,0.13,4.752-0.993,6.836-3.369c0.391-0.423,0.797-0.944,1.221-1.563
		c0.064-0.195,0.211-0.423,0.439-0.684c0.455-0.228,0.862-0.163,1.221,0.195C272.92,64.736,272.937,64.948,272.839,65.273z
		 M261.023,48.574c0,2.019-0.717,3.027-2.148,3.027c-1.433,0-2.148-1.009-2.148-3.027c0-2.018,0.716-3.027,2.148-3.027
		C260.306,45.546,261.023,46.556,261.023,48.574z"/>
	<path fill="#359EA2" d="M294.568,66.396c0.357,0.098,0.309,0.488-0.146,1.172l-0.098,0.098c-0.879,1.205-2.002,2.116-3.369,2.734
		c-1.01,0.456-2.084,0.684-3.223,0.684c-1.889,0.032-3.459-0.676-4.712-2.124c-1.254-1.448-1.913-3.507-1.978-6.177
		c-0.033-2.116,0.064-4.118,0.293-6.006l-0.342,0.684c-0.879,2.148-2.312,5.322-4.297,9.521c-1.303,2.409-2.588,3.629-3.857,3.662
		c-0.651,0-1.172-0.317-1.563-0.952s-0.602-1.685-0.635-3.149c0-1.042,0.065-2.425,0.195-4.15c0.162-2.018,0.26-3.401,0.293-4.15
		c0-0.293,0-0.716,0-1.27c-0.033-0.651-0.049-1.147-0.049-1.489s-0.357-0.838-1.074-1.489c0.064-0.358,0.112-0.716,0.145-1.074
		c0.064-0.228,0.306-0.342,0.723-0.342c0.962,0,1.652,0.399,2.071,1.196c0.417,0.798,0.626,2.287,0.626,4.468
		c0,0.781-0.042,1.872-0.126,3.271c-0.111,1.53-0.167,2.621-0.167,3.271c-0.033,1.465-0.033,2.344,0,2.637l0.244-0.295
		c0.553-0.786,1.351-2.326,2.393-4.62c0.618-1.474,1.595-3.653,2.93-6.538c0.586-1.114,1.09-1.917,1.514-2.409
		c0.553-0.654,1.123-0.982,1.709-0.982c0.716,0,1.221,0.328,1.514,0.982c0.228,0.492,0.276,1.408,0.146,2.75
		c-0.163,1.409-0.326,3.553-0.488,6.434c-0.033,1.964,0.35,3.544,1.147,4.739c0.797,1.196,1.912,1.81,3.345,1.842
		c1.529,0.065,2.881-0.342,4.053-1.221c0.293-0.325,0.797-0.765,1.514-1.318C293.819,66.461,294.242,66.331,294.568,66.396z"/>
	<path fill="#359EA2" d="M309.607,68.837c0,2.018-0.732,3.027-2.197,3.027c-1.433,0-2.148-1.009-2.148-3.027
		s0.716-3.027,2.148-3.027C308.875,65.81,309.607,66.819,309.607,68.837z"/>
</g>
<g>
</g>
<g>
</g>
<g>
</g>
<g>
</g>
<g>
</g>
<g>
</g>
</svg>
