<?xml version="1.0" encoding="utf-8"?>
<!-- Generator: Adobe Illustrator 16.0.0, SVG Export Plug-In . SVG Version: 6.00 Build 0)  -->
<!DOCTYPE svg PUBLIC "-//W3C//DTD SVG 1.1//EN" "http://www.w3.org/Graphics/SVG/1.1/DTD/svg11.dtd">
<svg version="1.1" id="Layer_1" xmlns="http://www.w3.org/2000/svg" xmlns:xlink="http://www.w3.org/1999/xlink" x="0px" y="0px"
	 width="465px" height="121px" viewBox="0 0 465 121" enable-background="new 0 0 465 121" xml:space="preserve">
<g>
	<rect x="15.561" y="31.597" fill="none" width="581.58" height="155.263"/>
	<path fill="#369EA2" d="M15.041,18.881c-1.3-0.75-1.56-1.5-1.17-3c0.26-0.75,0.65-1.05,1.3-1.05c3.25-0.6,6.371-0.3,9.621,0.6
		c1.3,0.3,2.86,0.15,4.29,0.15c1.17,0,2.34,0.15,3.64,0.15c2.21,0.15,4.29,0.15,6.5-0.15c0.65-0.15,1.17-0.15,1.82,0
		c1.43,0.3,2.99,0.15,4.29-0.6c1.56-0.75,3.12-0.3,4.68-0.3c1.3,0.15,2.6,0,3.9,0.3c1.17,0.45,1.95,1.2,1.69,2.1
		c-0.13,1.35-1.17,2.25-2.34,2.1c-0.65-0.15-1.17-0.45-1.82-0.3c-1.3,0-2.34,0.15-3.38,1.2c-1.56,1.35-3.25,2.1-5.2,2.55
		c-2.47,0.45-2.6,0.6-2.34,3.45c0.26,2.4,0.26,4.649,0.13,7.049c0,0.6,0,1.2-0.13,1.8c-0.13,1.05-0.26,1.95,0.13,3
		c0.26,1.05,0.39,2.25,0.39,3.45c0,4.5,0,8.85,0.13,13.199c0,3.6-0.52,7.05-0.78,10.65c-0.26,1.5-0.65,3.149-0.26,4.8v0.75
		c-1.17,3.45-0.78,6.9-0.65,10.5c0,0.9-0.26,1.95-0.13,3c0.13,3,0,6-0.13,9c-0.13,2.7-0.521,5.1-0.78,7.649
		c-0.13,1.5-0.26,3-0.52,4.5c0,0.6,0.13,0.9,0.65,1.2c0.78,0.45,1.69,0.75,2.6,0.6c2.21-0.45,4.42-0.3,6.63-0.3
		c1.56,0.15,3.25-0.45,4.81-0.3c1.04,0,1.43,0.45,1.82,1.5c0.39,1.35-0.52,2.7-1.82,2.55c-0.39-0.15-0.78-0.15-1.04,0.15
		c-0.39,0.3-0.91,0.45-1.3,0.45c-1.82-0.3-3.51,0.45-5.2,0.9c-2.86,0.6-5.72,0.9-8.581,0c-1.95-0.45-4.03-1.2-6.24-0.6
		c-0.78,0.15-1.82,0-2.73-0.15c-1.69-0.45-3.25-0.45-4.94-0.3c-1.69,0-2.99-0.6-4.16-1.95l-0.521-0.45
		c-0.26-0.3-0.91-0.45-0.65-1.05c0.26-0.6,0.26-1.35,1.04-1.5c1.17-0.15,2.21-0.75,3.25-0.75c1.3-0.3,2.6,0,4.03,0.15
		c0.91,0.15,1.95,0.3,2.86,0.3c0.65,0.15,1.04-0.3,1.04-1.05c-0.13-3.15,0.39-6.3-0.65-9.3c-0.39-1.35-0.39-2.85-0.521-4.2
		c-0.65-5.25-0.91-10.5-1.04-15.75c-0.13-2.85-0.26-5.7-0.26-8.549c0.13-6-0.13-12,0.13-18c0.13-4.5,0-9,0.26-13.5
		c0.13-4.05,0.65-8.1,1.04-12.149c0-0.3,0-0.6,0.13-1.05c0-0.6-0.26-1.05-0.91-0.9c-0.78,0.15-1.43,0.3-2.21,0.3
		C21.671,21.88,18.291,20.681,15.041,18.881z"/>
	<path fill="#369EA2" d="M61.451,4.181c0.39,0,1.17,0.15,1.43,0.6c1.82,2.25,2.47,4.8,1.82,7.65c-0.78,3-1.95,5.7-3.77,7.949
		c-0.65,0.75-1.43,1.2-2.08,1.65c-0.26,0.3-0.65,0.45-1.04,0.15c-0.26-0.3-0.26-0.6-0.26-1.05c0.13-1.65,0.91-3,1.56-4.35
		c1.04-2.1,0.91-2.4-1.17-2.7c-2.21-0.45-3.51-2.7-2.99-5.1c0.26-1.8,1.17-3.15,2.34-4.05c0.65-0.6,1.43-0.9,2.73-0.9
		C60.931,3.881,60.541,4.181,61.451,4.181z"/>
	<path fill="#369EA2" d="M150.632,65.679c-0.13,0.15-0.39,1.05-0.39,1.2c-1.3,1.8-0.91,3.15-1.82,5.25l-2.34,5.1l-1.43,3.45
		c-0.91,2.1-1.56,3.3-2.34,5.4c-1.3,3.45-3.77,8.25-4.94,10.349l-0.39,0.75c-2.08,3.75-4.16,9.3-10.79,9
		c-6.11-0.3-8.061-6.45-8.19-12.45c-0.13-4.5-0.52-8.25,0.26-12.899h-0.13c0.52-4.35,1.04-8.85,1.43-13.2c0.13-2.1,0.39-4.05,0.39-6
		c-0.13-2.7-1.3-5.1-2.99-4.2c-2.73,1.65-4.42,4.35-6.24,8.25l-1.82,4.8c-0.52,1.35-1.69,3.75-2.08,5.1c-0.65,2.7-1.56,5.4-2.47,7.8
		l-1.04,3.9c-1.3,4.35-2.21,8.7-3.641,13.049c-0.26,0.75-0.52,1.5-0.91,2.1l-0.78,2.4c-0.13,1.5-0.78,1.8-1.69,1.05
		c-0.13-0.15-0.39-0.45-0.65-0.45c-1.17-0.15-2.73,0-3.38-1.35c-0.13-0.15-0.26-0.45-0.39-0.45c-1.04-0.6-1.17-2.25-1.17-3.6
		c0-2.85-0.13-5.55-0.26-8.25l-0.39-12.3c-0.13-5.55-0.26-10.949-0.52-16.499c0-0.9,0-1.8-0.26-2.7c-0.13-0.6-0.39-0.75-0.78-0.6
		c-0.91,0.45-1.43,1.35-2.08,2.25c-1.82,2.55-2.21,3.9-3.25,7.2l-1.56,5.1c-0.13,0.45-0.39,0.9-0.39,1.35c0,2.1-0.65,3.6-1.3,5.25
		c-0.39,1.05-0.65,2.1-0.91,3.3c-0.13,1.05-0.39,2.25-0.65,3.3c-0.91,3-1.43,6-2.08,9c-0.65,2.55-1.3,5.1-1.82,7.8
		c-0.39,1.5-0.52,3-0.78,4.35c0,0.6-0.13,1.05-0.26,1.5c-0.39,1.05-1.3,1.2-1.82,0.45c-1.69-2.7-4.94,0.3-6.5-3
		c-1.04-2.4-1.3-4.95-0.91-7.799c0.13-0.9,0.13-1.8,0.13-2.55c0-3.3,0.13-6.6,0.39-9.899c0.26-1.65,0.13-3.3,0.26-4.95l1.56-19.049
		c0.26-2.25,0.39-17.549,2.99-17.249l1.69,0.3c2.34,0.45,4.29,1.35,5.46,4.2c0.26,0.45,0.52,1.05,0.52,1.65
		c0,1.2,0.13,2.25,0.39,3.45c0.13,0.9,0.26,1.8,0,2.7c-0.13,0.3-0.13,0.6-0.13,0.9c0.39,2.4,0.13,4.8,0,7.35
		c0,0.75,0,1.65-0.13,2.85c0.78-1.05,1.17-1.95,1.43-3c0.78-2.4,1.82-4.65,2.73-6.75c1.43-3,3.12-5.25,5.2-7.05
		c0.13,0,0.26-0.15,0.26-0.15c2.21-0.75,4.42-1.35,6.5,0.6l2.99,3.3c0.91,0.9,1.3,2.25,1.43,3.9c0.52,4.5,1.04,9.15,1.43,13.8
		l0.26,5.1c0,0.3-0.13,0.6,0.13,1.05c0.65-1.65,1.3-3.15,1.69-4.8c1.17-5.1,3.12-9.45,5.2-13.649c2.6-4.95,5.59-9,9.36-11.1
		c3.51-2.1,9.49-1.8,12.09,2.1c1.3,1.95,2.08,4.5,2.21,7.35l0.39,8.25c0.26,5.7-0.65,11.55-1.04,17.25
		c-0.26,2.55-1.17,8.7,0.26,10.2c0.91,0.9,3.12-3.75,4.94-6.6c1.04-1.8,2.47-5.7,3.64-7.5c0.52-0.75,1.95-4.65,2.73-5.25
		c0.26-0.15,0.39-0.45,0.52-0.75c0.91-1.95,1.56-2.4,2.6-4.35c0.26-0.6,0.91-0.3,1.3-0.75c0.78-0.9,1.56-1.65,2.21-2.7
		c0.78-1.2,1.56-2.7,2.21-4.05c0.26-0.3,0.52-0.6,0.91-0.15C151.153,63.879,150.763,65.229,150.632,65.679z"/>
	<path fill="#369EA2" d="M204.838,89.678c-0.78,1.65-1.17,3.6-1.56,5.55c-0.521,3.15-1.69,6.15-2.73,9.149
		c-1.17,3.75-2.86,7.05-6.11,9.45c-0.91,0.6-1.56,1.5-2.6,2.1c-5.331,3.3-10.141,3.45-15.081-0.3c-2.34-1.65-4.03-3.75-5.33-6.299
		c-1.3-2.7-2.73-5.4-3.25-8.4c-0.91-4.8-1.95-9.6-2.34-14.399c-0.39-4.2-0.39-8.25-0.65-12.299c-0.26-3.75-0.26-7.35-0.13-11.1
		c0.26-6.6,0.65-12.899,2.47-19.349c0.78-2.7,1.3-5.4,2.21-8.25c1.56-4.95,3.77-9.6,7.15-13.649c0.91-1.05,1.82-1.95,3.38-1.65
		c0.65,0,1.17-0.45,1.69-0.75c2.73-1.65,6.761-2.4,9.75-1.35c1.43,0.6,2.73,1.5,4.03,2.25c0.52,0.45,0.91,1.2,1.17,1.65
		c0.52,1.2,1.17,2.55,1.43,4.05c0,0.45,0.26,1.2,0.39,1.8c0.39,1.65,0.65,3.45,0.39,5.4c-0.39,2.7-0.521,5.399-0.78,8.1
		c0,1.05-0.13,2.1-0.52,3c-0.13,0.45-0.26,0.9-0.52,1.35c-0.52,0.9-1.69,1.5-2.47,1.2c-0.78-0.3-1.43-1.35-1.43-2.4
		c-0.13-0.6,0-1.2,0.13-1.65c0.78-3.45,1.04-6.9,0.39-10.35c-0.39-1.35-0.39-2.7-0.521-4.05c-0.13-1.35-0.91-2.4-1.82-3.3
		c-0.78-0.75-1.69-0.45-2.47,0.45c-1.43,1.65-2.47,3.6-2.99,5.85c-0.39,1.95-1.04,3.6-1.95,5.4c-1.43,3.15-2.08,6.75-2.73,10.2
		c-0.65,2.85-1.17,5.55-1.561,8.55c-0.39,3.899-0.78,7.949-0.78,11.849c0,5.25,0.39,10.35,0.52,15.45c0,3,0.26,6,0.39,9
		c0,1.8,0.39,3.6,1.04,5.4c0.78,1.8,1.04,3.75,1.3,5.85c0.26,2.55,1.3,4.8,2.47,6.75c0.39,0.75,0.91,1.05,1.43,1.5
		c0.91,0.75,1.82,0.75,2.73,0.15c1.17-0.6,2.47-1.2,3.12-2.4c0.26-0.45,0.65-0.6,0.91-0.9c0.39-0.3,0.65-0.45,0.91-0.9
		c2.21-4.35,4.68-8.549,6.11-13.049c0.65-2.1,1.69-3.9,2.73-5.85c0-0.15,0.13-0.15,0.26-0.3c0.39-0.3,0.78-0.75,1.3-0.45
		c0.52,0.15,0.65,0.6,0.65,1.2C204.969,89.228,204.838,89.378,204.838,89.678z"/>
	<path fill="#369EA2" d="M270.748,65.679c-0.131,0-0.391,0.9-0.391,1.05c-1.17,1.8-0.91,3.3-1.82,5.25
		c-0.779,1.8-0.779,2.25-2.34,5.1c-0.26,0.75-0.65,1.35-0.91,1.95c-1.039,2.1-1.82,4.2-2.99,6.149c-1.43,2.4-2.47,4.95-3.77,7.35
		l-0.391,0.75c-2.47,4.5-5.72,11.549-9.88,14.099c-6.63,4.35-10.53-3.6-11.57-9.75c-0.13-0.3-0.26-2.85-0.52-3
		c-0.52-0.15-1.3,1.65-1.43,2.1c-3.51,7.649-11.831,20.699-20.671,12.6c-9.49-8.55-7.67-23.249-5.59-35.099
		c1.17-6.6,3.9-12.149,7.411-17.25c1.82-2.85,4.29-5.1,7.02-6.6c1.95-1.05,4.16-1.65,6.24,0.15c0.78,0.45,1.56,0.45,2.47,0.6
		c2.99,0.45,5.979,1.05,8.32,3.75l1.69,1.8c0.779-0.75,1.039-1.95,1.689-2.7c1.041-1.65,1.301-1.8,3.121-1.2
		c1.689,0.6,2.6,1.8,3.379,3.45c0.26,0.3,0.131,0.6,0.131,0.9c-0.391,1.05-0.391,2.1-0.131,3.3c0.131,0.45,0.131,0.9,0,1.5
		c-0.52,3.45-0.52,6.9-1.299,10.35c-0.65,2.85-0.781,5.7-0.781,8.55c-0.26,4.35-0.39,8.85-0.779,13.2c-0.91,10.5,7.54-5.25,8.84-7.5
		c1.041-1.8,1.82-3.9,2.86-5.7c0.521-0.9,1.819-3.9,2.601-4.35c0.26-0.15,0.39-0.6,0.52-0.9c0.91-1.95,1.561-2.4,2.6-4.2
		c0.26-0.75,0.91-0.45,1.431-0.9c0.78-0.75,1.56-1.65,2.08-2.7c0.78-1.2,1.56-2.7,2.21-3.9c0.26-0.45,0.52-0.6,0.91-0.3
		C271.398,63.879,270.877,65.229,270.748,65.679z M231.486,57.129c-0.78,0-1.3,0.45-1.82,1.05c-4.94,5.7-5.59,9.899-7.54,15.899
		c-1.17,3.3-1.95,6.899-2.47,10.35c-0.52,3.75-1.56,10.949-0.78,14.699c1.17,5.7,5.46,4.95,8.061,1.05c2.21-3.3,3.51-6.45,5.2-10.2
		c0.65-1.2,1.17-2.4,1.69-3.75c1.04-2.7,3.12-8.25,3.51-11.399c0.391-1.95,0.65-4.35,0.781-6.6
		C238.506,62.679,237.467,57.429,231.486,57.129z"/>
	<path fill="#369EA2" d="M298.566,65.829c-0.131,0-0.391,0.9-0.391,1.05c-1.17,1.8-0.91,3.3-1.82,5.25
		c-0.779,1.8-0.779,2.25-2.34,5.1c-0.26,0.75-0.65,1.35-0.91,1.95c-1.039,2.1-1.82,4.2-2.99,6.15c-1.43,2.4-2.471,4.95-3.77,7.35
		c-2.471,4.5-5.33,11.25-10.4,12.299c-13.391,2.7-13.521-25.949-13.261-34.798c0.13-3.45,0-7.05,0.39-10.35
		c0.131-1.8,0.521-3.3,1.17-4.8c0.391-0.9,0.91-1.65,2.08-1.5c0.26,0.15,0.521,0.15,0.65,0c0.91-0.9,1.82-0.3,2.86,0
		c1.17,0.45,2.34,0.75,3.511,1.65c1.039,0.6,1.559,1.5,1.689,2.7c0,1.05-0.131,1.95-0.131,3l-0.52,9.75c0,1.05-0.13,2.1,0.131,3.15
		c0.649,3.45,0.389,6.75,0.649,10.2c0.13,2.1,0,9.899,1.95,10.799c2.34,1.2,7.801-11.099,9.359-13.799
		c0.521-0.9,1.82-3.9,2.602-4.35c0.26-0.15,0.389-0.6,0.52-0.9c0.91-1.95,1.561-2.4,2.6-4.2c0.26-0.75,0.91-0.45,1.43-0.9
		c0.781-0.75,1.561-1.65,2.08-2.7c0.91-1.05,1.561-2.7,2.211-3.9c0.26-0.45,0.52-0.6,0.91-0.3
		C299.217,64.029,298.695,65.379,298.566,65.829z M265.805,36.58c1.43-0.9,2.99-1.5,4.939-1.05c2.341-0.15,4.421,0.45,6.24,2.25
		c0.65,0.6,1.041,1.35,1.041,2.1c0.391,2.55,0,4.8-1.43,6.75c-1.82,2.25-4.16,2.1-7.15,0.3c-0.91-0.6-1.69-1.35-2.34-2.25
		l-1.951-2.85C263.725,40.18,264.115,37.63,265.805,36.58z"/>
	<path fill="#369EA2" d="M335.096,66.279c-0.521,1.65-0.65,1.95-1.951,5.1l-0.779,1.8c-0.781,2.1-1.691,4.2-2.6,6.15
		c-1.691,4.05-2.73,5.85-3.9,8.25c-1.691,3.75-8.32,17.399-11.832,21.299c-3.379,5.25-7.93,9.45-14.039,6.75
		c-7.281-3.149-10.271-12.749-10.791-20.999c-0.26-3-0.52-6.149-0.391-9.299c0.131-3.9-0.129-7.95,0.131-11.7
		c0.129-3.3,0.391-5.85,0.779-9.149c0.391-3.6,0.65-8.1,1.17-11.7c0.131-0.3,0.391-4.05,0.65-6.45c-1.43,0-1.17,0.3-2.471,0.6
		c-1.299,0.3-2.469,0.45-3.25,0.3c-2.08-0.3-2.859-0.75-4.68-2.25c-0.779-0.75-1.43-1.2-1.689-2.1c-0.391-0.9-0.391-1.35,0.52-1.2
		c1.43,0,2.859-0.3,4.42-0.3c1.691,0.15,1.82-0.15,3.51-0.6c2.73-0.75,1.17-1.05,3.771-1.65c1.299-0.15,1.299-0.3,1.689-1.5
		c1.17-5.1,2.08-10.2,2.99-15.599c0.391-2.25,0.779-4.65,1.561-6.9c0-0.15,0-0.45,0.129-0.6c0.391-2.25,1.82-3.6,3.9-3.3
		c1.561,0.45,2.99,0.6,4.291,1.8c0.779,0.75,1.559,1.65,1.689,3c0.391,1.95,0.91,3.75,0.391,5.7v0.3c0.26,3,0,6.149-0.26,9
		c-0.131,0.6,0.26,0.6,0.52,0.45c0.779-0.3,1.43-0.75,2.08-1.05c2.6-1.05,4.939-2.1,7.539-2.7c0.781-0.3,1.301-0.45,1.951-0.9
		c0.779-0.6,1.561-0.75,2.34-0.45c1.17,0.15,1.561,1.8,0.91,3c-1.041,1.65-2.6,2.4-4.291,2.4c-1.689,0-3.119,1.05-4.42,2.1
		c-2.34,1.95-5.459,3.6-7.93,5.1c-0.65,0.45-0.91,1.05-0.91,1.8c0,0.6-0.391,2.4-0.65,4.5c-0.26,2.25-0.65,5.1-0.65,5.85
		c-0.648,5.1-0.779,9.45-1.17,14.549l-0.648,13.95c0,1.65-0.131,5.549,0,7.199l0.389,7.95l0.391,5.85c0.52,7.8,3.119,8.399,7.67,1.8
		l1.43-2.1c1.17-1.8,1.951-3.45,2.861-4.8c0.779-1.05,1.039-1.95,1.82-3.45c0.779-1.5,1.559-3.3,2.469-4.8
		c0.391-0.6,1.43-3.75,2.211-4.2c0.65-1.05,1.17-2.1,1.43-2.85c1.039-1.95,1.561-3.15,2.34-4.95c0.52-0.75,1.561-3.9,2.211-4.35
		c0.26-0.15,0.389-0.45,0.52-0.75c0.779-2.1,1.43-2.55,2.209-4.35c0.262-0.6,0.91-0.45,1.301-0.9c0.52-0.9,1.301-1.8,1.82-2.55
		l1.949-4.35c0.262-0.15,0.781-0.45,1.17-0.15c0.391,0.3,0,1.65-0.129,2.1c0,0-0.131,0.15-0.26,1.05
		C335.484,62.979,335.875,64.329,335.096,66.279z"/>
	<path fill="#369EA2" d="M365.775,65.829c0,0-0.129,0.15-0.389,0.9c-1.301,2.1-0.91,3.3-1.82,5.25c-0.65,1.8-0.781,2.25-1.82,4.2
		c-0.131,0.6-0.26,1.05-0.52,1.5c-1.041,1.95-1.82,4.05-2.73,6.15c-0.26,0.6-0.52,1.2-0.91,1.8l-3.9,6.9
		c-0.131,0.45-0.391,0.9-0.65,1.2c-0.26,0.75-0.65,1.35-1.039,1.95c-0.521,1.05-0.91,2.25-1.691,3.15l-0.389,0.45
		c0,0-0.131,0.15-0.131,0.3c-1.43,1.65-2.73,4.5-4.029,6.3c-1.041,1.35-1.951,2.85-3.121,3.9c-1.561,1.8-3.25,3.45-5.199,4.8
		l-1.561,1.05c-0.91,0.6-1.951,1.05-2.99,0.75c-0.131,0-0.26-0.15-0.391-0.15c-1.559,0.6-2.6-1.2-3.9-1.95l-2.6-1.5
		c-0.91-0.45-1.561-1.35-2.08-2.25c-0.779-1.5-1.82-2.85-2.471-4.5c-1.17-3-2.34-6-2.859-9.299c-1.17-7.65-1.43-15.6-1.301-23.399
		c0.131-4.05,0.521-8.1,0.91-12.15c0.391-3.45,0.781-6.75,0.91-10.199c0-1.05,0.26-2.1,0.391-3.15c0.65-4.2,1.43-8.25,2.34-12.3
		c1.43-6.45,3.641-12.75,5.98-18.899c0.91-2.85,2.211-5.4,4.029-7.65c0.781-1.05,1.691-2.25,2.99-2.55c0.262,0,0.521-0.15,0.781-0.3
		c1.299-0.9,2.73-1.35,4.16-1.35l1.039-0.3c0.26-0.15,0.65-0.15,0.91,0c1.301,0.75,2.6,1.2,3.771,2.4
		c0.908,0.9,1.818,1.95,2.08,3.45c0.389,1.35,0.52,2.7,0.648,4.2l0.26,2.1c-0.389,2.85-0.389,5.7-0.908,8.399
		c-0.391,2.85-0.91,5.55-1.432,8.4c-0.91,4.65-2.34,9-3.77,13.5l-1.039,3.15c-1.301,4.5-3.121,8.85-4.811,13.199
		c-1.041,2.7-2.08,5.25-3.25,7.8c-0.521,1.2-1.301,2.1-1.82,3.3c-1.041,2.1-1.43,4.35-1.561,6.6c-0.131,2.1,0.131,4.2-0.26,6.3
		c-0.131,0.6,0.129,1.2,0.129,1.95c0.262,1.5-0.129,3.149,0.131,4.8c0.131,1.8,0.26,3.6,0.52,5.399c0,0.45,0.131,0.75,0.131,1.2
		c0,1.95,0.391,3.6,1.039,5.399c0.131,0.45,0.521,0.9,0.781,1.35c0.52,0.6,1.039,0.6,1.82,0.45c2.08-0.45,6.629-6.3,8.709-8.7
		c2.99-4.8,7.15-11.85,8.061-13.35c1.17-1.8,1.689-3.15,2.73-4.95c0.52-0.75,1.82-3.9,2.6-4.35c0.26-0.15,0.391-0.45,0.52-0.75
		c0.91-1.95,1.561-2.55,2.602-4.35c0.26-0.6,0.91-0.45,1.43-0.9c0.65-0.75,1.43-1.5,2.08-2.55c0.779-1.05,1.561-2.7,2.209-3.9
		c0.262-0.3,0.521-0.6,0.91-0.3C366.297,64.029,366.035,65.379,365.775,65.829z M330.805,61.929c0,0.3,0,0.6,0.26,0.6
		c0.26,0.15,0.52-0.15,0.65-0.3c0-0.15,0.129-0.15,0.129-0.3c0.781-1.35,1.432-2.55,1.951-4.05c1.039-2.7,2.08-5.399,2.99-8.1
		l3.379-10.5c1.041-2.85,1.041-5.85,1.951-8.85c0.391-1.5,0.391-3.15,1.039-4.65c0.131-0.3,0.131-0.75,0.131-1.05
		c-0.131-1.35,0.26-2.7,0.391-4.2c0.129-0.75,0-1.65,0.129-2.4c0.391-1.2,0.52-2.25,0.26-3.45v-1.05c0.131-1.05-0.26-1.8-0.779-2.55
		c-0.65-1.05-1.561-0.9-2.211,0c-0.648,0.9-1.17,1.95-1.559,3c-0.781,2.55-1.432,4.95-2.08,7.5c-0.391,1.35-0.781,2.85-0.91,4.2
		c-0.131,1.35-0.391,2.55-0.65,3.75c-0.26,2.25-1.17,4.2-1.301,6.45c-0.26,3.15-1.299,6.15-1.689,9.3l-1.17,8.399
		c-0.26,2.4-0.26,4.65-0.91,6.9V61.929z"/>
	<path fill="#369EA2" d="M390.605,65.829c-0.131,0-0.391,0.9-0.391,1.05c-1.17,1.8-0.91,3.3-1.82,5.25
		c-0.779,1.8-0.779,2.25-2.34,5.1c-0.26,0.75-0.65,1.35-0.91,1.95c-1.039,2.1-1.82,4.2-2.99,6.15c-1.43,2.4-2.469,4.95-3.77,7.35
		c-2.471,4.5-5.33,11.25-10.4,12.299c-13.391,2.7-13.52-25.949-13.26-34.798c0.129-3.45,0-7.05,0.389-10.35
		c0.131-1.8,0.521-3.3,1.17-4.8c0.391-0.9,0.91-1.65,2.08-1.5c0.262,0.15,0.521,0.15,0.65,0c0.91-0.9,1.82-0.3,2.861,0
		c1.17,0.45,2.34,0.75,3.51,1.65c1.039,0.6,1.561,1.5,1.689,2.7c0,1.05-0.129,1.95-0.129,3l-0.521,9.75c0,1.05-0.129,2.1,0.131,3.15
		c0.65,3.45,0.391,6.75,0.65,10.2c0.129,2.1,0,9.899,1.949,10.799c2.34,1.2,7.801-11.099,9.361-13.799c0.52-0.9,1.82-3.9,2.6-4.35
		c0.26-0.15,0.391-0.6,0.52-0.9c0.91-1.95,1.561-2.4,2.6-4.2c0.262-0.75,0.91-0.45,1.432-0.9c0.779-0.75,1.559-1.65,2.08-2.7
		c0.91-1.05,1.559-2.7,2.209-3.9c0.26-0.45,0.52-0.6,0.91-0.3C391.256,64.029,390.736,65.379,390.605,65.829z M357.844,36.58
		c1.43-0.9,2.99-1.5,4.941-1.05c2.34-0.15,4.42,0.45,6.24,2.25c0.648,0.6,1.039,1.35,1.039,2.1c0.391,2.55,0,4.8-1.43,6.75
		c-1.82,2.25-4.16,2.1-7.15,0.3c-0.91-0.6-1.689-1.35-2.34-2.25l-1.951-2.85C355.764,40.18,356.154,37.63,357.844,36.58z"/>
	<path fill="#369EA2" d="M441.695,65.679c0,0.15-0.26,1.05-0.391,1.2c-1.17,1.8-0.779,3.15-1.689,5.25c-0.91,1.8-0.91,2.1-2.34,5.1
		c-0.391,0.6-1.949,4.2-2.34,4.8c-0.91,2.1-1.17,3.3-2.08,5.4c-2.211,5.55-3.121,6.9-5.33,10.65c-3.381,5.85-7.281,9.6-12.352,6.899
		c-3.119-1.8-4.029-5.25-4.809-9c-0.91-3.75-1.041-7.65-1.301-11.399c-0.131-1.65-0.26-3.45-0.26-5.1c0-0.75,0-1.5,0.129-2.25
		c0.131-3.3,0.131-6.6,0.131-9.899c0-3.9,0.26-7.95-0.26-11.85c-0.26-2.7-0.65-3-2.73-1.8c-0.52,0.3-0.91,0.75-1.43,1.2
		c-2.471,2.4-3.9,5.7-5.59,8.699c-1.432,2.55-2.08,5.25-3.25,7.95c-0.521,1.35-0.262,2.85-0.391,4.35c-0.26,2.7-0.391,5.4-1.041,8.1
		c-0.389,1.8-0.389,3.6-0.52,5.25c-0.26,3.899-0.91,7.649-1.561,11.549c-0.129,0.45-0.26,0.9-0.26,1.5
		c-0.129,1.2-0.52,2.1-1.43,2.85c-0.391,0.3-0.65,0.9-1.039,1.2c-0.65,0.6-2.471,0.75-3.512,0.45c-0.779-0.15-0.648,0.75-0.91,1.2
		c-2.08-1.05-3.119-3.3-4.809-4.65c-0.781-0.75-0.91-1.8-0.91-3c-0.131-4.5,0.389-9.149,1.039-13.649c0.131-1.8,0.52-3.6,0.52-5.399
		c0-4.5,0.781-9,1.301-13.5c0.26-1.8,0.391-3.6,0.52-5.4c0.131-3.75,2.861-20.249,8.061-12.899c0.91,1.35,1.82,2.7,3.121,3.6
		c0.648,0.45,1.17,1.2,1.559,2.1c0.131,0.45,0.262,0.9,0.781,1.2c1.689-1.65,2.73-3.899,4.42-5.549c2.99-3.15,6.5-4.05,10.4-2.85
		c4.551,1.5,7.15,5.1,8.449,10.2c0.781,2.85,0.521,5.7,0.262,8.7c-0.131,2.4,0,4.95,0.129,7.35c0.131,1.5,0.26,3,0.131,4.5v0.45
		c-0.131,1.2,0.26,2.25,0.129,3.45c0,2.25-0.91,7.8,0.65,9.9c2.34,3,4.551-3.45,5.98-5.85c1.039-1.95,1.689-4.05,2.859-5.85
		c0.521-0.75,1.82-3.75,2.602-4.35c0.26-0.15,0.389-0.45,0.52-0.75c0.91-1.95,1.561-2.4,2.471-4.35c0.389-0.6,1.039-0.3,1.43-0.75
		c0.779-0.9,1.559-1.65,2.209-2.7c0.65-1.2,1.43-2.85,2.211-4.05c0.129-0.3,0.52-0.6,0.91-0.3
		C442.346,63.879,441.955,65.229,441.695,65.679z"/>
	<path fill="#369EA2" d="M454.822,97.177c1.951-0.6,3.25,0.6,4.291,1.8c0.91,1.2,1.561,2.85,1.689,4.5
		c0.131,1.65-0.52,3.15-1.17,4.5c-0.26,0.45-0.52,0.75-0.91,1.05c-1.299,0.9-2.73,1.35-4.16,1.35c-2.209,0.15-4.42-1.95-5.07-4.35
		c-0.129-0.3-0.26-0.6-0.129-1.05c0.389-1.65,0.52-3.3,1.17-4.8C451.443,97.927,452.742,96.728,454.822,97.177z"/>
</g>
<g>
</g>
<g>
</g>
<g>
</g>
<g>
</g>
<g>
</g>
<g>
</g>
</svg>
