<?xml version="1.0" encoding="utf-8"?>
<!-- Generator: Adobe Illustrator 16.0.0, SVG Export Plug-In . SVG Version: 6.00 Build 0)  -->
<!DOCTYPE svg PUBLIC "-//W3C//DTD SVG 1.1//EN" "http://www.w3.org/Graphics/SVG/1.1/DTD/svg11.dtd">
<svg version="1.1" id="Layer_1" xmlns="http://www.w3.org/2000/svg" xmlns:xlink="http://www.w3.org/1999/xlink" x="0px" y="0px"
	 width="362.281px" height="95.614px" viewBox="0 0 362.281 95.614" enable-background="new 0 0 362.281 95.614"
	 xml:space="preserve">
<g>
	<rect x="-37.719" y="9.649" fill="none" width="450" height="164.912"/>
	<path fill="#369EA2" d="M48.936,10.874c0.096,0.288,0.144,0.504,0.144,0.648c0,0.336-0.072,0.648-0.216,0.936L35.832,60.913
		c-1.584,5.857-3.265,10.908-5.04,15.156c-1.776,4.248-4.536,8.028-8.28,11.34c-3.744,3.312-8.568,4.968-14.472,4.968
		c-0.529,0-0.961-0.169-1.296-0.504c-0.336-0.336-0.504-0.769-0.504-1.296c0-0.48,0.18-0.9,0.54-1.26c0.36-0.36,0.78-0.54,1.26-0.54
		c5.087,0,9.24-1.476,12.456-4.428c3.215-2.952,5.627-6.372,7.236-10.26c1.607-3.888,3.132-8.592,4.572-14.112l0.504-1.728
		l11.232-41.76l-0.144-0.072c-2.208,1.296-4.464,1.944-6.768,1.944c-1.537,0-2.977-0.227-4.32-0.684
		c-1.345-0.456-2.929-1.14-4.752-2.052c-1.632-0.768-2.952-1.343-3.96-1.728c-1.008-0.384-2.041-0.576-3.096-0.576
		c-1.728,0-3.193,0.696-4.392,2.088c-0.529,0.625-0.936,1.357-1.224,2.196c-0.288,0.84-0.432,1.668-0.432,2.484
		c0,1.249,0.419,2.473,1.26,3.672c0.839,1.201,2.508,1.8,5.004,1.8c0.528,0,0.96,0.168,1.296,0.504
		c0.335,0.336,0.504,0.768,0.504,1.296c0,0.529-0.169,0.961-0.504,1.296c-0.336,0.336-0.769,0.504-1.296,0.504
		c-3.168,0-5.604-0.887-7.308-2.664c-1.705-1.775-2.556-3.912-2.556-6.408c0-1.728,0.407-3.384,1.224-4.968
		c0.815-1.584,1.955-2.88,3.42-3.888c1.463-1.008,3.132-1.512,5.004-1.512c1.44,0,2.819,0.241,4.14,0.72
		c1.319,0.48,2.844,1.152,4.572,2.016c1.775,0.816,3.179,1.416,4.212,1.8c1.032,0.385,2.1,0.576,3.204,0.576
		c1.343,0,2.7-0.324,4.068-0.972c1.368-0.648,2.892-1.739,4.572-3.276c0.432-0.576,0.936-0.864,1.512-0.864
		C48.095,9.818,48.647,10.202,48.936,10.874z"/>
	<path fill="#369EA2" d="M57.935,16.273c-0.048,0.673-0.169,1.308-0.36,1.908c-0.192,0.601-0.552,1.309-1.08,2.124
		c-0.288,0.385-0.661,0.792-1.116,1.224c-0.457,0.432-0.853,0.648-1.188,0.648c-0.097,0.048-0.192,0.012-0.288-0.108
		c-0.097-0.119-0.144-0.299-0.144-0.54c0-0.191,0.072-0.479,0.216-0.864c0.144-0.384,0.216-0.695,0.216-0.936
		c0-0.384-0.192-0.744-0.576-1.08c-0.432-0.24-0.781-0.587-1.044-1.044c-0.265-0.456-0.396-0.947-0.396-1.476
		c0-0.816,0.275-1.5,0.828-2.052c0.551-0.551,1.235-0.828,2.052-0.828c0.767,0,1.428,0.264,1.98,0.792
		c0.551,0.528,0.852,1.177,0.9,1.944v0.144V16.273z"/>
	<path fill="#369EA2" d="M120.575,58.465c0,0,0.119,0.205,0.36,0.612c0.24,0.409,0.312,0.853,0.216,1.332
		c-0.241,1.152-0.9,3.108-1.98,5.868c-1.08,2.761-2.664,5.412-4.752,7.956c-2.088,2.544-4.572,3.816-7.452,3.816
		c-2.353,0-4.201-0.864-5.544-2.592c-1.249-1.728-1.872-4.151-1.872-7.272c0-2.063,0.204-4.104,0.612-6.12
		c0.407-2.016,0.78-3.456,1.116-4.32l1.368-5.472c0.335-1.199,0.504-2.448,0.504-3.744c0-1.152-0.192-1.991-0.576-2.52
		c-0.192-0.288-0.576-0.432-1.152-0.432c-1.296,0-3,1.524-5.112,4.572c-2.113,3.049-4.309,6.984-6.588,11.808
		c-2.28,4.824-4.333,9.804-6.156,14.94c-0.288,0.768-0.864,1.152-1.728,1.152h-0.432l-0.144-0.072c-0.48-0.096-0.84-0.36-1.08-0.792
		c-0.241-0.432-0.288-0.888-0.144-1.368l6.264-23.544c0.335-1.199,0.504-2.423,0.504-3.672c0-1.199-0.192-2.063-0.576-2.592
		c-0.288-0.288-0.673-0.432-1.152-0.432c-1.296,0-2.988,1.501-5.076,4.5c-2.088,3-4.26,6.876-6.516,11.628
		c-2.257,4.752-4.32,9.697-6.192,14.832l-0.072,0.216c-0.097,0.336-0.241,0.601-0.432,0.792l-0.432,0.288
		c-0.288,0.144-0.576,0.216-0.864,0.216c-0.241,0-0.432-0.023-0.576-0.072c-0.336-0.144-0.612-0.372-0.828-0.684
		c-0.216-0.312-0.324-0.659-0.324-1.044c0-0.24,0.023-0.432,0.072-0.576l0.144-0.36l8.424-31.968c0.096-0.479,0.36-0.839,0.792-1.08
		c0.432-0.239,0.888-0.288,1.368-0.144c0.479,0.097,0.828,0.36,1.044,0.792c0.216,0.432,0.275,0.889,0.18,1.368l-2.736,10.368
		c4.608-8.399,8.615-12.6,12.024-12.6c1.68,0,2.999,0.601,3.96,1.8c0.864,1.105,1.296,2.689,1.296,4.752
		c0,0.961-0.084,1.897-0.252,2.808c-0.168,0.913-0.3,1.512-0.396,1.8l-0.504,1.8c4.704-8.64,8.784-12.96,12.24-12.96
		c1.68,0,3,0.601,3.96,1.8c0.864,1.105,1.296,2.712,1.296,4.824c0,1.104-0.192,2.617-0.576,4.536l-1.44,5.472
		c-0.432,1.345-0.792,2.893-1.08,4.644c-0.288,1.753-0.432,3.396-0.432,4.932c0,2.401,0.384,4.104,1.152,5.112
		c0.527,0.769,1.415,1.152,2.664,1.152c1.728,0,3.348-0.888,4.86-2.664c1.512-1.775,2.76-3.804,3.744-6.084
		c0.983-2.279,1.715-4.356,2.196-6.228c0.096-0.479,0.348-0.839,0.756-1.08c0.407-0.24,0.852-0.312,1.332-0.216
		C120.334,58.394,120.575,58.465,120.575,58.465z"/>
	<path fill="#369EA2" d="M190.954,11.629c1.943,1.321,3.358,2.928,4.247,4.824c0.888,1.897,1.332,3.733,1.332,5.508
		c0,2.401-0.647,4.597-1.943,6.588c-1.296,1.992-3.049,3.517-5.256,4.572c-1.584,0.769-3.337,1.152-5.256,1.152
		c-2.88,0-5.472-0.96-7.776-2.88c-0.385-0.335-0.576-0.792-0.576-1.368c0-0.479,0.119-0.839,0.36-1.08
		c0.384-0.384,0.816-0.576,1.296-0.576c0.384,0,0.768,0.144,1.152,0.432c1.631,1.344,3.479,2.016,5.544,2.016
		c1.343,0,2.616-0.288,3.816-0.864c1.632-0.72,2.916-1.788,3.852-3.204c0.937-1.416,1.404-3.012,1.404-4.788
		c0-1.055-0.288-2.268-0.864-3.636c-0.575-1.368-1.56-2.58-2.951-3.636c-1.393-1.055-3.265-1.584-5.616-1.584
		c-4.657,0-9.432,1.728-14.328,5.184c-4.896,3.456-9.288,8.112-13.176,13.968c-3.888,5.857-6.744,12.265-8.568,19.224
		c-1.344,4.896-2.016,9.624-2.016,14.184c0,3.504,0.407,6.721,1.224,9.648c0.815,2.927,2.016,5.423,3.6,7.488
		c1.536,2.016,3.408,3.552,5.616,4.608c2.208,1.055,4.68,1.584,7.416,1.584c5.568,0,10.536-1.464,14.904-4.392
		c4.367-2.928,7.92-6.624,10.655-11.088c2.736-4.464,4.584-8.975,5.545-13.536c0.047-0.335,0.227-0.6,0.54-0.792
		c0.312-0.191,0.659-0.288,1.044-0.288c0.288,0,0.504,0.024,0.647,0.072c0.911,0.385,1.296,1.033,1.152,1.944
		c-1.008,5.088-3,10.044-5.976,14.868c-2.977,4.824-6.901,8.808-11.772,11.952c-4.873,3.143-10.453,4.716-16.74,4.716
		c-3.265,0-6.228-0.637-8.892-1.908c-2.664-1.272-4.932-3.157-6.804-5.652c-1.872-2.352-3.276-5.16-4.212-8.424
		s-1.404-6.84-1.404-10.728c0-4.752,0.72-9.792,2.16-15.12c1.968-7.391,5.063-14.231,9.288-20.52
		c4.223-6.288,9.011-11.268,14.364-14.94c5.352-3.672,10.596-5.508,15.732-5.508C186.597,9.649,189.009,10.31,190.954,11.629z"/>
	<path fill="#369EA2" d="M240.164,59.077c0.24,0.409,0.288,0.853,0.145,1.332c-0.241,1.152-0.9,3.108-1.98,5.868
		c-1.08,2.761-2.664,5.412-4.752,7.956c-2.088,2.544-4.571,3.816-7.452,3.816c-1.151,0-2.195-0.227-3.132-0.684
		c-0.936-0.456-1.717-1.091-2.34-1.908c-1.057-1.343-1.656-3.264-1.8-5.76c-1.969,2.592-4.201,4.633-6.696,6.12
		c-2.496,1.488-4.992,2.232-7.488,2.232c-1.632,0-3.144-0.335-4.535-1.008c-1.394-0.672-2.568-1.631-3.528-2.88
		c-1.776-2.255-2.664-5.184-2.664-8.784c0-1.728,0.264-3.647,0.792-5.76c0.864-3.264,2.268-6.228,4.212-8.892
		c1.944-2.664,4.188-4.775,6.732-6.336c2.543-1.559,5.111-2.34,7.704-2.34c1.631,0,3.143,0.336,4.535,1.008
		c1.392,0.673,2.567,1.632,3.528,2.88c0.672,0.912,1.152,1.752,1.44,2.52l0.359-1.224c0.096-0.479,0.36-0.839,0.792-1.08
		c0.433-0.24,0.888-0.312,1.368-0.216c0.479,0.144,0.84,0.42,1.08,0.828c0.239,0.409,0.288,0.853,0.145,1.332l-2.809,10.584
		c-0.432,1.345-0.792,2.893-1.08,4.644c-0.288,1.753-0.432,3.396-0.432,4.932c0,2.401,0.384,4.104,1.151,5.112
		c0.528,0.769,1.416,1.152,2.664,1.152c1.729,0,3.349-0.888,4.86-2.664c1.512-1.775,2.76-3.804,3.744-6.084
		c0.983-2.279,1.716-4.356,2.196-6.228c0.096-0.479,0.359-0.839,0.792-1.08c0.432-0.24,0.888-0.312,1.367-0.216
		C239.563,58.394,239.923,58.67,240.164,59.077z M210.824,72.469c2.088-1.368,3.948-3.179,5.58-5.436
		c1.632-2.255,2.809-4.704,3.528-7.344l0.144-0.648c0.336-1.343,0.504-2.76,0.504-4.248c0-2.783-0.647-5.016-1.943-6.696
		c-1.249-1.68-3.001-2.52-5.256-2.52c-2.017,0-4.068,0.684-6.156,2.052s-3.949,3.193-5.58,5.472
		c-1.633,2.281-2.808,4.741-3.528,7.38c-0.432,1.632-0.647,3.24-0.647,4.824c0,2.736,0.647,4.968,1.943,6.696
		c1.296,1.681,3.048,2.52,5.256,2.52C206.684,74.521,208.736,73.837,210.824,72.469z"/>
	<path fill="#369EA2" d="M244.482,42.913c0.24,0.432,0.288,0.889,0.145,1.368l-3.744,14.4c-0.432,1.345-0.792,2.88-1.08,4.608
		c-0.288,1.728-0.432,3.36-0.432,4.896c0,2.448,0.384,4.176,1.151,5.184c0.528,0.769,1.416,1.152,2.664,1.152
		c1.775,0,3.408-0.888,4.896-2.664c1.487-1.775,2.735-3.827,3.744-6.156c1.008-2.328,1.728-4.379,2.159-6.156
		c0.096-0.479,0.36-0.839,0.792-1.08c0.433-0.24,0.888-0.312,1.368-0.216c0.479,0.144,0.84,0.42,1.08,0.828
		c0.24,0.409,0.312,0.853,0.216,1.332c-0.624,2.113-1.393,4.32-2.304,6.624c-0.912,2.304-2.412,4.716-4.5,7.236
		s-4.572,3.78-7.452,3.78c-1.151,0-2.195-0.227-3.132-0.684c-0.936-0.456-1.717-1.091-2.34-1.908
		c-1.249-1.631-1.872-4.08-1.872-7.344c0-2.88,0.551-6.336,1.656-10.368l3.744-14.4c0.144-0.479,0.419-0.839,0.827-1.08
		c0.407-0.239,0.853-0.288,1.332-0.144C243.881,42.218,244.242,42.481,244.482,42.913z M247.254,32.438
		c0.551,0.552,0.828,1.236,0.828,2.052c0,0.817-0.277,1.501-0.828,2.052c-0.553,0.552-1.236,0.828-2.052,0.828
		c-0.769,0-1.44-0.288-2.017-0.864s-0.863-1.248-0.863-2.016c0-0.815,0.287-1.5,0.863-2.052c0.576-0.551,1.248-0.828,2.017-0.828
		C246.018,31.609,246.702,31.886,247.254,32.438z"/>
	<path fill="#369EA2" d="M279.151,58.933c0.36,0.36,0.468,0.805,0.324,1.332c-0.385,1.584-1.236,3.744-2.556,6.48
		c-1.321,2.736-3.289,5.305-5.904,7.704c-2.617,2.401-5.796,3.6-9.54,3.6c-3.168,0-5.412-0.924-6.732-2.772
		c-1.32-1.847-1.979-4.236-1.979-7.164c0-2.783,0.527-6.072,1.584-9.864l4.607-16.2h-5.184c-0.528,0-0.947-0.167-1.26-0.504
		c-0.312-0.335-0.468-0.744-0.468-1.224c0-0.479,0.168-0.875,0.504-1.188c0.336-0.312,0.743-0.468,1.224-0.468h6.192l3.815-13.32
		c0.145-0.479,0.407-0.839,0.792-1.08c0.384-0.239,0.815-0.288,1.296-0.144c0.433,0.097,0.78,0.36,1.044,0.792
		c0.264,0.432,0.324,0.864,0.181,1.296l-3.601,12.456h4.032c0.864,0,1.487,0.144,1.872,0.432c0.384,0.288,0.576,0.72,0.576,1.296
		c0,1.104-0.673,1.656-2.017,1.656h-5.399l-4.896,17.064c-0.912,3.072-1.368,5.88-1.368,8.424c0,4.705,1.729,7.056,5.185,7.056
		c4.607,0,8.003-1.764,10.188-5.292c2.184-3.528,3.637-6.732,4.356-9.612c0.096-0.432,0.299-0.756,0.612-0.972
		c0.312-0.216,0.659-0.324,1.044-0.324C278.298,58.394,278.791,58.573,279.151,58.933z"/>
	<path fill="#369EA2" d="M301.506,59.077c0.239,0.409,0.312,0.853,0.216,1.332c-0.24,1.249-0.961,3.229-2.16,5.94
		c-1.2,2.712-3.12,5.34-5.76,7.884c-2.641,2.544-5.952,3.816-9.936,3.816c-2.593,0-4.633-0.936-6.12-2.808
		c-1.537-1.967-2.305-4.848-2.305-8.64c0-2.304,0.24-4.56,0.721-6.768c0-0.144,0.023-0.264,0.071-0.36
		c0.145-0.767,0.264-1.319,0.36-1.656l6.769-25.632c1.247-5.087,2.951-10.116,5.111-15.084c2.16-4.968,4.655-7.452,7.488-7.452
		c1.68,0,2.88,0.625,3.6,1.872c0.479,0.768,0.721,1.752,0.721,2.952c0,2.592-1.033,6.205-3.097,10.836
		c-2.064,4.633-5.496,11.604-10.296,20.916c-2.545,4.752-4.992,9.504-7.344,14.256c-0.385,2.304-0.576,4.368-0.576,6.192
		c0,2.928,0.504,5.065,1.512,6.408c0.768,0.96,1.896,1.44,3.385,1.44c3.168,0,5.819-1.091,7.956-3.276
		c2.135-2.184,3.587-4.164,4.355-5.94c0.768-1.775,1.487-3.695,2.16-5.76c0.096-0.479,0.348-0.839,0.756-1.08
		c0.407-0.24,0.852-0.288,1.332-0.144C300.906,58.418,301.265,58.67,301.506,59.077z M294.09,13.177c0,0-0.925,2.064-2.772,6.192
		c-1.848,4.129-3.372,8.688-4.571,13.68l-3.024,11.52c4.079-7.823,7.283-14.256,9.612-19.296c2.327-5.04,3.492-8.64,3.492-10.8
		c0-0.479-0.072-0.864-0.217-1.152c-0.191-0.096-0.408-0.144-0.647-0.144C294.713,13.177,294.09,13.177,294.09,13.177z"/>
	<path fill="#369EA2" d="M305.753,42.913c0.24,0.432,0.288,0.889,0.145,1.368l-3.744,14.4c-0.432,1.345-0.792,2.88-1.08,4.608
		c-0.288,1.728-0.432,3.36-0.432,4.896c0,2.448,0.384,4.176,1.151,5.184c0.528,0.769,1.416,1.152,2.664,1.152
		c1.775,0,3.408-0.888,4.896-2.664c1.487-1.775,2.735-3.827,3.744-6.156c1.008-2.328,1.728-4.379,2.159-6.156
		c0.096-0.479,0.36-0.839,0.792-1.08c0.433-0.24,0.888-0.312,1.368-0.216c0.479,0.144,0.84,0.42,1.08,0.828
		c0.24,0.409,0.312,0.853,0.216,1.332c-0.624,2.113-1.393,4.32-2.304,6.624c-0.912,2.304-2.412,4.716-4.5,7.236
		s-4.572,3.78-7.452,3.78c-1.151,0-2.195-0.227-3.132-0.684c-0.936-0.456-1.717-1.091-2.34-1.908
		c-1.249-1.631-1.872-4.08-1.872-7.344c0-2.88,0.551-6.336,1.656-10.368l3.744-14.4c0.144-0.479,0.419-0.839,0.827-1.08
		c0.407-0.239,0.853-0.288,1.332-0.144C305.153,42.218,305.513,42.481,305.753,42.913z M308.526,32.438
		c0.551,0.552,0.828,1.236,0.828,2.052c0,0.817-0.277,1.501-0.828,2.052c-0.553,0.552-1.236,0.828-2.052,0.828
		c-0.769,0-1.44-0.288-2.017-0.864s-0.863-1.248-0.863-2.016c0-0.815,0.287-1.5,0.863-2.052c0.576-0.551,1.248-0.828,2.017-0.828
		C307.29,31.609,307.973,31.886,308.526,32.438z"/>
	<path fill="#369EA2" d="M354.137,58.465c0,0,0.119,0.205,0.36,0.612c0.239,0.409,0.312,0.853,0.216,1.332
		c-0.24,1.152-0.9,3.108-1.979,5.868c-1.08,2.761-2.664,5.412-4.752,7.956c-2.089,2.544-4.572,3.816-7.452,3.816
		c-2.641,0-4.656-0.959-6.048-2.88c-1.297-1.728-1.944-4.2-1.944-7.416c0-2.112,0.216-4.188,0.647-6.228
		c0.433-2.04,0.84-3.611,1.225-4.716l0.647-2.448c0.96-3.456,1.44-5.735,1.44-6.84c0-0.72-0.12-1.224-0.36-1.512
		c-0.144-0.288-0.528-0.432-1.151-0.432c-2.16,0-4.549,1.645-7.164,4.932c-2.617,3.289-5.112,7.308-7.488,12.06
		s-4.381,9.408-6.012,13.968v0.216c-0.049,0.144-0.192,0.408-0.433,0.792c-0.048,0.048-0.107,0.097-0.18,0.144
		c-0.072,0.048-0.18,0.097-0.324,0.144c-0.192,0.144-0.457,0.216-0.792,0.216c-0.24,0-0.432-0.023-0.576-0.072
		c-0.24-0.096-0.408-0.191-0.504-0.288c-0.432-0.335-0.647-0.768-0.647-1.296c-0.049-0.191-0.025-0.432,0.071-0.72l0.145-0.36
		l8.424-31.968c0.096-0.479,0.36-0.839,0.792-1.08c0.432-0.239,0.888-0.288,1.368-0.144c0.479,0.097,0.828,0.36,1.044,0.792
		c0.216,0.432,0.275,0.889,0.18,1.368l-3.168,12.024c5.376-9.504,10.464-14.256,15.265-14.256c1.728,0,3.071,0.625,4.031,1.872
		c0.672,1.008,1.009,2.257,1.009,3.744c0,1.44-0.288,3.024-0.864,4.752l-1.368,5.4c-0.432,1.296-0.828,2.892-1.188,4.788
		c-0.359,1.896-0.539,3.684-0.539,5.364c0,2.304,0.407,4.032,1.224,5.184c0.72,0.913,1.8,1.368,3.24,1.368
		c1.728,0,3.348-0.888,4.859-2.664c1.513-1.775,2.76-3.804,3.744-6.084c0.983-2.279,1.716-4.356,2.196-6.228
		c0.096-0.479,0.348-0.839,0.756-1.08c0.407-0.24,0.852-0.312,1.332-0.216C353.897,58.394,354.137,58.465,354.137,58.465z"/>
	<path fill="#369EA2" d="M355.577,77.186c-0.575-0.576-0.863-1.248-0.863-2.016c0-0.816,0.288-1.5,0.863-2.052
		c0.576-0.551,1.248-0.828,2.017-0.828c0.815,0,1.499,0.276,2.052,0.828c0.552,0.553,0.828,1.236,0.828,2.052
		c0,0.816-0.276,1.5-0.828,2.052c-0.553,0.553-1.236,0.828-2.052,0.828C356.825,78.049,356.153,77.761,355.577,77.186z"/>
</g>
<g>
</g>
<g>
</g>
<g>
</g>
<g>
</g>
<g>
</g>
<g>
</g>
</svg>
