<?xml version="1.0" encoding="utf-8"?>
<!-- Generator: Adobe Illustrator 16.0.0, SVG Export Plug-In . SVG Version: 6.00 Build 0)  -->
<!DOCTYPE svg PUBLIC "-//W3C//DTD SVG 1.1//EN" "http://www.w3.org/Graphics/SVG/1.1/DTD/svg11.dtd">
<svg version="1.1" id="Layer_1" xmlns="http://www.w3.org/2000/svg" xmlns:xlink="http://www.w3.org/1999/xlink" x="0px" y="0px"
	 width="242px" height="87px" viewBox="0 0 242 87" enable-background="new 0 0 242 87" xml:space="preserve">
<g>
	<rect x="6" y="22" fill="none" width="565" height="237"/>
	<path fill="#339EA2" d="M82.582,64.211c0.273,0.196,0.126,0.615-0.439,1.26c-0.567,0.645-1.28,1.26-2.139,1.846
		C71.527,73.528,62.66,78.04,53.402,80.852c-5.899,1.835-11.504,2.714-16.816,2.637C31,83.449,26.175,82.57,22.113,80.852
		c-3.086-1.289-5.694-2.988-7.822-5.098c-2.129-2.109-3.779-4.629-4.951-7.559C7.894,64.563,7.21,60.344,7.289,55.54
		c0.078-4.257,0.742-8.242,1.992-11.953c1.601-4.726,3.945-9.023,7.031-12.891c7.773-9.687,18.886-16.269,33.34-19.746
		c6.367-1.523,12.226-1.992,17.578-1.406c5.156,0.547,8.808,2.109,10.957,4.688c1.25,1.523,2.031,3.204,2.344,5.039
		c0.352,1.915,0.136,3.809-0.645,5.684c-1.719,4.258-5.938,8.399-12.656,12.422c-1.172,0.743-2.422,1.426-3.75,2.051
		c-0.586,0.313-1.504,0.684-2.754,1.113c-1.016,0.196-2.051,0.04-3.105-0.469c-0.743-0.352-0.938-0.8-0.586-1.348
		c0.312-0.546,1.015-1.172,2.109-1.875c0.469-0.312,1.641-1.015,3.516-2.109c3.437-2.031,6.23-4.003,8.379-5.918
		c2.695-2.461,4.257-4.726,4.688-6.797c0.352-1.641-0.098-3.223-1.348-4.746c-0.665-0.859-1.875-1.582-3.633-2.168
		c-1.563-0.469-3.418-0.781-5.566-0.938c-4.57-0.312-9.825,0.234-15.762,1.641c-13.125,3.125-23.203,9.18-30.234,18.164
		c-2.695,3.438-4.708,7.051-6.035,10.84c-1.172,3.438-1.816,7.051-1.934,10.84c-0.157,4.063,0.293,7.579,1.348,10.547
		c0.938,2.695,2.344,5.02,4.219,6.973c1.718,1.836,3.945,3.34,6.68,4.512c3.75,1.641,8.145,2.52,13.184,2.637
		c9.648,0.195,20.391-2.792,32.227-8.965c2.617-1.367,5.429-3.047,8.438-5.039c0.703-0.507,1.796-1.132,3.281-1.875
		C81.645,64.134,82.308,64.056,82.582,64.211z"/>
	<path fill="#339EA2" d="M109.359,65.618c0.39,0.117,0.253,0.489-0.41,1.113c-2.266,2.109-5.566,3.145-9.902,3.105
		c-0.547,0-1.25-0.039-2.109-0.117c-0.665,1.68-1.523,3.164-2.578,4.453c-2.188,2.813-4.688,4.219-7.5,4.219
		c-2.071,0-3.809-0.683-5.215-2.051c-1.797-1.758-2.675-4.121-2.637-7.09c0.039-2.734,1.172-5.508,3.398-8.32
		c0.703-0.859,1.816-1.855,3.34-2.988c0.117-1.093,0.449-2.031,0.996-2.813c0.859-1.172,2.109-1.758,3.75-1.758
		c2.382,0,4.277,0.752,5.684,2.256c1.406,1.504,2.109,3.682,2.109,6.533c0.039,1.992-0.196,3.809-0.703,5.449
		c3.828,0.469,7.05-0.039,9.668-1.523C108.109,65.579,108.812,65.423,109.359,65.618z M93.832,69.042
		c-1.211-0.35-2.227-0.816-3.047-1.4c-1.758-1.206-3.262-3.346-4.512-6.419c-2.422,2.724-3.672,5.389-3.75,7.994
		c-0.04,1.985,0.449,3.619,1.465,4.903c0.742,0.934,1.699,1.42,2.871,1.458c1.875,0,3.691-1.244,5.449-3.734
		C92.895,70.988,93.402,70.054,93.832,69.042z M95.238,62.127c0.039-2.02-0.41-3.573-1.348-4.662
		c-0.665-0.815-1.661-1.242-2.988-1.282c-0.86,0-1.446,0.447-1.758,1.34c-0.391,1.205-0.352,2.331,0.117,3.38
		c0.625,1.398,1.035,2.292,1.23,2.681c0.546,0.971,1.191,1.729,1.934,2.272c0.546,0.388,1.21,0.719,1.992,0.991
		C94.925,65.255,95.199,63.682,95.238,62.127z"/>
	<path fill="#339EA2" d="M134.73,73.293c0.429,0.117,0.371,0.586-0.176,1.406l-0.117,0.117c-1.055,1.446-2.402,2.54-4.043,3.281
		c-1.211,0.546-2.5,0.82-3.867,0.82c-2.266,0.039-4.151-0.811-5.654-2.549c-1.504-1.738-2.295-4.208-2.373-7.412
		c-0.04-2.539,0.078-4.941,0.352-7.207l-0.41,0.82c-1.055,2.578-2.774,6.387-5.156,11.426c-1.563,2.891-3.105,4.355-4.629,4.395
		c-0.782,0-1.406-0.381-1.875-1.143s-0.722-2.021-0.762-3.779c0-1.25,0.079-2.91,0.234-4.98c0.195-2.421,0.312-4.082,0.352-4.98
		c0-0.352,0-0.859,0-1.523c-0.04-0.781-0.059-1.377-0.059-1.787s-0.429-1.005-1.289-1.787c0.077-0.429,0.135-0.859,0.173-1.289
		c0.078-0.273,0.367-0.41,0.867-0.41c1.155,0,1.984,0.479,2.486,1.436c0.5,0.958,0.751,2.745,0.751,5.361
		c0,0.938-0.05,2.247-0.151,3.926c-0.134,1.836-0.201,3.145-0.201,3.926c-0.04,1.758-0.04,2.813,0,3.164l0.293-0.354
		c0.664-0.943,1.621-2.791,2.871-5.543c0.742-1.769,1.914-4.384,3.516-7.845c0.703-1.336,1.308-2.3,1.816-2.89
		c0.664-0.786,1.348-1.179,2.051-1.179c0.859,0,1.465,0.394,1.816,1.179c0.273,0.589,0.332,1.689,0.176,3.3
		c-0.196,1.69-0.391,4.264-0.586,7.721c-0.04,2.357,0.419,4.254,1.377,5.688c0.957,1.435,2.294,2.171,4.014,2.21
		c1.835,0.079,3.457-0.41,4.863-1.465c0.352-0.39,0.957-0.917,1.816-1.582C133.832,73.372,134.339,73.216,134.73,73.293z"/>
	<path fill="#339EA2" d="M159.105,42.239c-0.079,0.235-0.352,0.412-0.819,0.529c-4.958,0.235-11.439,0.333-19.442,0.294
		l-0.553,2.806c-0.933,4.806-1.555,8.283-1.866,10.431c-0.583,3.908-0.895,7.404-0.933,10.49c0,3.984,0.566,6.856,1.699,8.614
		c0.938,1.368,2.344,2.09,4.219,2.168c1.562,0.04,3.144-0.586,4.746-1.875c2.461-1.953,4.688-4.805,6.68-8.555
		c0.117-0.312,0.332-0.703,0.645-1.172c0.664-0.429,1.152-0.507,1.465-0.234c0.234,0.196,0.234,0.645,0,1.348
		c-1.758,4.336-4.024,7.696-6.797,10.078c-2.305,2.031-4.551,3.047-6.738,3.047c-2.266,0.039-4.122-0.645-5.566-2.051
		c-1.563-1.445-2.598-3.633-3.105-6.563c-0.508-2.617-0.606-6.171-0.293-10.664c0.273-4.492,1.113-10.449,2.52-17.871L130.219,43
		c-2.968,0.04-7.363-0.097-13.184-0.41c-0.39-0.039-0.898-0.176-1.523-0.41c-0.195-0.117-0.39-0.605-0.586-1.465
		c-0.117-0.429-0.117-0.8,0-1.113c0.157-0.507,0.684-0.762,1.582-0.762c1.719,0.04,4.786,0.176,9.199,0.41l9.902,0.469l0.352-1.465
		c0.195-0.976,0.41-1.894,0.645-2.754c0.078-0.429,0.273-1.015,0.586-1.758c0.195-0.234,0.722-0.429,1.582-0.586
		c0.586-0.117,1.025,0,1.318,0.351s0.361,0.954,0.205,1.811c-0.088,0.584-0.264,1.461-0.526,2.629l-0.294,1.94l17.93,0.94
		c0.273-0.039,0.645-0.02,1.113,0.059C159.027,41.24,159.223,41.69,159.105,42.239z"/>
	<path fill="#339EA2" d="M186.117,66.379c0.117,0.117,0.176,0.333,0.176,0.645c0,1.719-1.289,4.063-3.867,7.031
		c-2.891,3.36-5.762,5.058-8.613,5.098c-2.266,0-4.083-0.684-5.449-2.051c-1.016-1.015-1.778-2.344-2.285-3.984
		c-0.469,0.782-0.977,1.543-1.523,2.285c-2.149,2.89-4.336,4.355-6.563,4.395c-1.602,0.039-2.969-0.703-4.102-2.227
		c-1.368-1.835-2.051-4.395-2.051-7.676c0-4.882,1.641-9.355,4.922-13.418c2.031-2.539,4.277-3.809,6.738-3.809
		c2.851,0.04,4.746,0.958,5.684,2.754c0.938,1.719,0.938,3.164,0,4.336c-0.234,0.274-0.782,0.41-1.641,0.41
		c-0.43,0-0.762-0.097-0.996-0.293c-0.234-0.195-0.391-0.82-0.469-1.875c0-0.352-0.059-0.605-0.176-0.762
		c-0.274-0.469-1.075-0.722-2.402-0.762c-1.523-0.039-3.164,1.192-4.922,3.691c-2.188,3.047-3.34,6.29-3.457,9.727
		c-0.079,1.836,0.146,3.467,0.674,4.893c0.527,1.426,1.26,2.159,2.197,2.197c1.172,0.04,2.578-0.859,4.219-2.695
		c1.289-1.484,2.382-3.125,3.281-4.922c0-1.093,0.078-2.227,0.234-3.398c0.156-1.172,0.41-2.011,0.762-2.52
		c0.234-0.273,0.762-0.332,1.582-0.176c0.273-0.117,0.527-0.136,0.762-0.059c0.039,0,0.156,0.157,0.352,0.469
		c0.156,0.079,0.352,0.234,0.586,0.469c0,0.117-0.079,0.684-0.234,1.699c-0.157,1.25-0.234,2.461-0.234,3.633
		c0.078,2.188,0.546,3.829,1.406,4.922c0.703,0.899,1.738,1.387,3.105,1.465c3.398,0.196,6.835-2.558,10.313-8.262
		C184.867,66.399,185.531,65.989,186.117,66.379z"/>
	<path fill="#339EA2" d="M212.895,68.02c0.195,0.234,0.136,0.665-0.176,1.289c-2.813,4.375-6.27,7.5-10.371,9.375
		c-2.227,0.976-4.434,1.484-6.621,1.523c-4.063,0.039-7.364-1.113-9.902-3.457c-2.071-1.875-3.105-4.219-3.105-7.031
		c0-4.843,1.738-8.945,5.215-12.305c2.461-2.344,5-3.516,7.617-3.516c2.07,0,3.671,0.43,4.805,1.289
		c1.21,0.977,1.777,2.227,1.699,3.75c-0.117,2.227-0.84,4.024-2.168,5.391c-0.313,0.352-0.879,0.782-1.699,1.289
		c-0.352,0.079-0.938-0.078-1.758-0.469c-0.43-0.195-0.684-0.469-0.762-0.82c-0.079-0.234,0.39-1.035,1.406-2.402
		c0.586-0.742,0.917-1.777,0.996-3.105c0.039-0.39-0.059-0.683-0.293-0.879c-0.43-0.273-1.172-0.429-2.227-0.469
		c-1.797-0.039-3.633,0.977-5.508,3.047c-2.461,2.618-3.75,5.684-3.867,9.199c-0.079,2.188,0.664,3.965,2.227,5.332
		c1.914,1.68,4.355,2.54,7.324,2.578c4.219,0.079,8.281-1.816,12.188-5.684c0.859-0.82,1.641-1.641,2.344-2.461
		c0.156-0.39,0.527-0.859,1.113-1.406C212.113,67.727,212.621,67.708,212.895,68.02z"/>
	<path fill="#339EA2" d="M238.207,42.239c-0.079,0.235-0.352,0.412-0.819,0.529c-4.958,0.235-11.439,0.333-19.442,0.294
		l-0.553,2.806c-0.933,4.806-1.555,8.283-1.866,10.431c-0.583,3.908-0.895,7.404-0.933,10.49c0,3.984,0.566,6.856,1.699,8.614
		c0.938,1.368,2.344,2.09,4.219,2.168c1.562,0.04,3.144-0.586,4.746-1.875c2.461-1.953,4.688-4.805,6.68-8.555
		c0.117-0.312,0.332-0.703,0.645-1.172c0.664-0.429,1.152-0.507,1.465-0.234c0.234,0.196,0.234,0.645,0,1.348
		c-1.758,4.336-4.024,7.696-6.797,10.078c-2.305,2.031-4.551,3.047-6.738,3.047c-2.266,0.039-4.122-0.645-5.566-2.051
		c-1.563-1.445-2.598-3.633-3.105-6.563c-0.508-2.617-0.606-6.171-0.293-10.664c0.273-4.492,1.113-10.449,2.52-17.871L209.32,43
		c-2.968,0.04-7.363-0.097-13.184-0.41c-0.39-0.039-0.898-0.176-1.523-0.41c-0.195-0.117-0.39-0.605-0.586-1.465
		c-0.117-0.429-0.117-0.8,0-1.113c0.157-0.507,0.684-0.762,1.582-0.762c1.719,0.04,4.786,0.176,9.199,0.41l9.902,0.469l0.352-1.465
		c0.195-0.976,0.41-1.894,0.645-2.754c0.078-0.429,0.273-1.015,0.586-1.758c0.195-0.234,0.722-0.429,1.582-0.586
		c0.586-0.117,1.025,0,1.318,0.351s0.361,0.954,0.205,1.811c-0.088,0.584-0.264,1.461-0.526,2.629l-0.294,1.94l17.93,0.94
		c0.273-0.039,0.645-0.02,1.113,0.059C238.128,41.24,238.324,41.69,238.207,42.239z"/>
</g>
<g>
</g>
<g>
</g>
<g>
</g>
<g>
</g>
<g>
</g>
<g>
</g>
</svg>
