<?xml version="1.0" encoding="utf-8"?>
<!-- Generator: Adobe Illustrator 16.0.0, SVG Export Plug-In . SVG Version: 6.00 Build 0)  -->
<!DOCTYPE svg PUBLIC "-//W3C//DTD SVG 1.1//EN" "http://www.w3.org/Graphics/SVG/1.1/DTD/svg11.dtd">
<svg version="1.1" id="Layer_1" xmlns="http://www.w3.org/2000/svg" xmlns:xlink="http://www.w3.org/1999/xlink" x="0px" y="0px"
	 width="340.351px" height="80px" viewBox="0 0 340.351 80" enable-background="new 0 0 340.351 80" xml:space="preserve">
<g>
	<path fill="#F9B39B" d="M5.739,11.447c-1-0.5-1.2-1-0.899-2c0.2-0.5,0.5-0.7,1-0.7c2.5-0.4,4.9-0.2,7.4,0.4c1,0.2,2.2,0.1,3.3,0.1
		c0.9,0,1.801,0.1,2.801,0.1c1.7,0.1,3.3,0.1,5-0.1c0.5-0.1,0.9-0.1,1.4,0c1.1,0.2,2.3,0.1,3.3-0.4c1.2-0.5,2.4-0.2,3.601-0.2
		c1,0.1,2,0,3,0.2c0.899,0.3,1.5,0.8,1.3,1.4c-0.1,0.9-0.9,1.5-1.8,1.4c-0.5-0.1-0.9-0.3-1.4-0.2c-1,0-1.8,0.1-2.6,0.8
		c-1.2,0.9-2.501,1.4-4.001,1.7c-1.899,0.3-2,0.4-1.8,2.3c0.2,1.6,0.2,3.101,0.1,4.701c0,0.4,0,0.8-0.1,1.2c-0.1,0.7-0.2,1.3,0.1,2
		c0.2,0.7,0.301,1.5,0.301,2.3c0,3,0,5.9,0.1,8.801c0,2.4-0.4,4.7-0.6,7.1c-0.2,1-0.5,2.101-0.2,3.2v0.5c-0.9,2.3-0.601,4.6-0.5,7
		c0,0.6-0.2,1.3-0.101,2c0.101,2,0,4-0.1,6c-0.1,1.8-0.4,3.4-0.601,5.101c-0.1,1-0.199,2-0.399,3c0,0.4,0.1,0.6,0.5,0.8
		c0.6,0.3,1.3,0.5,2,0.4c1.7-0.3,3.4-0.2,5.101-0.2c1.2,0.1,2.5-0.3,3.7-0.2c0.8,0,1.1,0.3,1.399,1c0.301,0.9-0.399,1.8-1.399,1.7
		c-0.3-0.1-0.601-0.1-0.8,0.1c-0.301,0.2-0.7,0.3-1.001,0.3c-1.399-0.2-2.7,0.3-4,0.6c-2.2,0.4-4.4,0.6-6.601,0
		c-1.5-0.3-3.1-0.8-4.8-0.4c-0.601,0.1-1.4,0-2.101-0.1c-1.3-0.3-2.5-0.3-3.8-0.2c-1.3,0-2.3-0.4-3.2-1.3l-0.4-0.3
		c-0.199-0.2-0.7-0.3-0.5-0.7c0.2-0.4,0.2-0.9,0.801-1c0.899-0.1,1.699-0.5,2.5-0.5c1-0.2,2,0,3.1,0.1c0.7,0.1,1.5,0.2,2.2,0.2
		c0.5,0.1,0.8-0.2,0.8-0.7c-0.1-2.1,0.301-4.2-0.5-6.2c-0.3-0.9-0.3-1.9-0.399-2.8c-0.5-3.5-0.7-7-0.8-10.5
		c-0.101-1.9-0.2-3.8-0.2-5.701c0.1-4-0.101-8,0.1-12c0.101-3,0-6,0.2-9c0.1-2.7,0.5-5.4,0.8-8.101c0-0.2,0-0.4,0.101-0.7
		c0-0.4-0.2-0.7-0.7-0.6c-0.601,0.1-1.101,0.2-1.7,0.2C10.84,13.448,8.24,12.647,5.739,11.447z"/>
	<path fill="#F9B39B" d="M41.439,1.647c0.3,0,0.9,0.1,1.101,0.4c1.399,1.5,1.899,3.2,1.399,5.1c-0.6,2-1.5,3.8-2.9,5.301
		c-0.5,0.5-1.1,0.8-1.6,1.1c-0.2,0.2-0.5,0.3-0.8,0.1c-0.2-0.2-0.2-0.4-0.2-0.7c0.1-1.1,0.7-2,1.2-2.9c0.8-1.4,0.7-1.6-0.9-1.8
		c-1.7-0.3-2.7-1.8-2.3-3.4c0.2-1.2,0.899-2.1,1.8-2.7c0.5-0.4,1.101-0.6,2.101-0.6C41.039,1.447,40.739,1.647,41.439,1.647z"/>
	<path fill="#F9B39B" d="M110.042,42.649c-0.1,0.1-0.3,0.7-0.3,0.8c-1,1.2-0.7,2.1-1.399,3.5l-1.801,3.4l-1.1,2.3
		c-0.7,1.4-1.2,2.2-1.801,3.6c-1,2.3-2.899,5.5-3.8,6.901l-0.3,0.5c-1.601,2.5-3.2,6.2-8.301,6c-4.7-0.2-6.2-4.3-6.301-8.3
		c-0.1-3-0.399-5.5,0.2-8.601h-0.1c0.4-2.9,0.8-5.9,1.1-8.8c0.101-1.4,0.301-2.7,0.301-4c-0.101-1.8-1-3.4-2.301-2.8
		c-2.1,1.1-3.4,2.9-4.8,5.5l-1.4,3.2c-0.4,0.9-1.3,2.5-1.6,3.4c-0.501,1.8-1.2,3.6-1.9,5.2l-0.8,2.6c-1,2.9-1.7,5.8-2.801,8.701
		c-0.2,0.5-0.399,1-0.7,1.4l-0.6,1.6c-0.101,1-0.601,1.2-1.3,0.7c-0.101-0.1-0.301-0.3-0.5-0.3c-0.9-0.1-2.101,0-2.601-0.9
		c-0.1-0.1-0.2-0.3-0.3-0.3c-0.8-0.4-0.9-1.5-0.9-2.4c0-1.9-0.1-3.7-0.2-5.5l-0.3-8.2c-0.1-3.7-0.2-7.301-0.4-11.001
		c0-0.6,0-1.2-0.199-1.8c-0.101-0.4-0.301-0.5-0.601-0.4c-0.7,0.3-1.1,0.9-1.6,1.5c-1.4,1.7-1.7,2.6-2.5,4.8l-1.2,3.4
		c-0.101,0.3-0.301,0.6-0.301,0.9c0,1.4-0.5,2.4-1,3.5c-0.3,0.7-0.5,1.4-0.699,2.2c-0.101,0.7-0.301,1.5-0.5,2.2
		c-0.7,2-1.101,4-1.601,6c-0.5,1.7-1,3.4-1.4,5.2c-0.3,1-0.399,2-0.6,2.9c0,0.4-0.1,0.7-0.2,1c-0.3,0.7-1,0.8-1.4,0.3
		c-1.3-1.8-3.8,0.2-5-2c-0.8-1.6-1-3.3-0.7-5.201c0.101-0.6,0.101-1.2,0.101-1.7c0-2.2,0.1-4.4,0.3-6.601c0.2-1.1,0.1-2.2,0.2-3.3
		l1.2-12.701c0.199-1.5,0.3-11.701,2.3-11.501l1.3,0.2c1.801,0.3,3.301,0.9,4.2,2.8c0.2,0.3,0.4,0.7,0.4,1.1c0,0.8,0.1,1.5,0.3,2.3
		c0.101,0.6,0.2,1.2,0,1.8c-0.1,0.2-0.1,0.4-0.1,0.6c0.3,1.6,0.1,3.2,0,4.9c0,0.5,0,1.1-0.101,1.9c0.601-0.7,0.9-1.3,1.101-2
		c0.6-1.6,1.399-3.1,2.1-4.5c1.101-2,2.4-3.5,4.001-4.7c0.1,0,0.199-0.1,0.199-0.1c1.7-0.5,3.4-0.9,5.001,0.4l2.3,2.2
		c0.7,0.6,1,1.5,1.1,2.6c0.4,3,0.801,6.1,1.101,9.2l0.2,3.4c0,0.2-0.101,0.4,0.1,0.7c0.5-1.1,1-2.1,1.3-3.2
		c0.9-3.4,2.4-6.3,4.001-9.101c2-3.3,4.3-6,7.2-7.4c2.7-1.4,7.301-1.2,9.301,1.4c1,1.3,1.6,3,1.7,4.9l0.3,5.5
		c0.2,3.8-0.5,7.7-0.8,11.5c-0.2,1.7-0.9,5.8,0.199,6.8c0.7,0.6,2.4-2.5,3.801-4.4c0.8-1.2,1.9-3.8,2.8-5c0.4-0.5,1.5-3.1,2.101-3.5
		c0.2-0.1,0.3-0.3,0.399-0.5c0.7-1.3,1.2-1.6,2.001-2.9c0.199-0.4,0.699-0.2,1-0.5c0.6-0.6,1.199-1.1,1.699-1.8
		c0.601-0.8,1.2-1.8,1.7-2.7c0.2-0.2,0.4-0.4,0.7-0.1C110.442,41.449,110.143,42.349,110.042,42.649z"/>
	<path fill="#F9B39B" d="M151.739,58.65c-0.6,1.1-0.9,2.4-1.2,3.7c-0.399,2.1-1.3,4.1-2.1,6.101c-0.9,2.5-2.2,4.7-4.7,6.3
		c-0.7,0.4-1.2,1-2.001,1.4c-4.1,2.2-7.8,2.3-11.601-0.2c-1.8-1.1-3.1-2.5-4.1-4.201c-1-1.8-2.101-3.6-2.501-5.6
		c-0.699-3.2-1.5-6.4-1.8-9.601c-0.3-2.8-0.3-5.5-0.5-8.201c-0.2-2.5-0.2-4.9-0.1-7.4c0.2-4.4,0.5-8.601,1.899-12.901
		c0.601-1.8,1.001-3.6,1.7-5.5c1.2-3.3,2.9-6.4,5.501-9.101c0.7-0.7,1.399-1.3,2.6-1.1c0.5,0,0.9-0.3,1.301-0.5
		c2.1-1.1,5.2-1.6,7.5-0.9c1.1,0.4,2.101,1,3.101,1.5c0.399,0.3,0.699,0.8,0.899,1.1c0.4,0.8,0.9,1.7,1.101,2.7
		c0,0.3,0.2,0.8,0.3,1.2c0.3,1.1,0.5,2.3,0.3,3.6c-0.3,1.8-0.399,3.601-0.6,5.4c0,0.7-0.101,1.4-0.4,2c-0.1,0.3-0.2,0.6-0.399,0.9
		c-0.4,0.6-1.301,1-1.9,0.8c-0.601-0.2-1.101-0.9-1.101-1.6c-0.1-0.4,0-0.8,0.101-1.1c0.6-2.3,0.8-4.6,0.3-6.9
		c-0.3-0.9-0.3-1.8-0.4-2.7c-0.1-0.9-0.7-1.6-1.399-2.2c-0.601-0.5-1.301-0.3-1.9,0.3c-1.101,1.1-1.9,2.4-2.3,3.9
		c-0.301,1.3-0.801,2.4-1.501,3.6c-1.1,2.1-1.6,4.5-2.1,6.8c-0.5,1.9-0.9,3.7-1.2,5.7c-0.3,2.601-0.6,5.301-0.6,7.901
		c0,3.5,0.3,6.9,0.399,10.3c0,2,0.2,4,0.3,6c0,1.2,0.301,2.4,0.801,3.6c0.6,1.2,0.8,2.5,1,3.9c0.2,1.7,1,3.2,1.899,4.5
		c0.301,0.5,0.7,0.7,1.101,1c0.7,0.5,1.4,0.5,2.101,0.1c0.899-0.4,1.899-0.8,2.399-1.6c0.2-0.3,0.5-0.4,0.7-0.6
		c0.3-0.2,0.5-0.3,0.7-0.6c1.7-2.9,3.601-5.701,4.7-8.701c0.5-1.4,1.3-2.6,2.101-3.9c0-0.1,0.1-0.1,0.199-0.2
		c0.301-0.2,0.601-0.5,1-0.3c0.4,0.1,0.5,0.4,0.5,0.8C151.839,58.35,151.739,58.45,151.739,58.65z"/>
	<path fill="#F9B39B" d="M202.438,42.649c-0.1,0-0.3,0.6-0.3,0.7c-0.9,1.2-0.7,2.2-1.4,3.5c-0.6,1.2-0.6,1.5-1.8,3.4
		c-0.2,0.5-0.5,0.9-0.7,1.3c-0.8,1.4-1.4,2.8-2.3,4.101c-1.101,1.6-1.9,3.3-2.9,4.9l-0.3,0.5c-1.9,3-4.4,7.701-7.601,9.401
		c-5.101,2.9-8.101-2.4-8.9-6.5c-0.101-0.2-0.2-1.9-0.4-2c-0.4-0.1-1,1.1-1.1,1.4c-2.7,5.101-9.101,13.801-15.901,8.4
		c-7.301-5.7-5.9-15.501-4.3-23.401c0.899-4.4,3-8.101,5.7-11.5c1.399-1.9,3.3-3.4,5.4-4.4c1.5-0.7,3.2-1.1,4.8,0.1
		c0.601,0.3,1.2,0.3,1.9,0.4c2.3,0.3,4.601,0.7,6.4,2.5l1.3,1.2c0.601-0.5,0.8-1.3,1.3-1.8c0.801-1.1,1.001-1.2,2.4-0.8
		c1.3,0.4,2,1.2,2.601,2.3c0.2,0.2,0.1,0.4,0.1,0.6c-0.3,0.7-0.3,1.4-0.1,2.2c0.1,0.3,0.1,0.6,0,1c-0.4,2.3-0.4,4.6-1,6.9
		c-0.5,1.9-0.601,3.8-0.601,5.7c-0.2,2.9-0.3,5.9-0.6,8.8c-0.7,7,5.8-3.5,6.8-5c0.801-1.2,1.4-2.6,2.2-3.8
		c0.4-0.6,1.4-2.6,2.001-2.9c0.199-0.1,0.3-0.4,0.399-0.6c0.7-1.3,1.2-1.6,2-2.8c0.2-0.5,0.7-0.3,1.101-0.6c0.6-0.5,1.2-1.1,1.6-1.8
		c0.601-0.8,1.2-1.8,1.7-2.6c0.2-0.3,0.4-0.4,0.7-0.2C202.938,41.449,202.539,42.349,202.438,42.649z M172.236,36.949
		c-0.6,0-1,0.3-1.399,0.7c-3.801,3.8-4.301,6.601-5.801,10.601c-0.899,2.2-1.5,4.601-1.899,6.9c-0.4,2.5-1.2,7.301-0.601,9.801
		c0.9,3.8,4.2,3.3,6.2,0.7c1.7-2.2,2.7-4.3,4-6.8c0.501-0.8,0.9-1.6,1.301-2.5c0.8-1.8,2.4-5.5,2.7-7.601c0.3-1.3,0.5-2.9,0.6-4.4
		C177.637,40.649,176.837,37.149,172.236,36.949z"/>
	<path fill="#F9B39B" d="M223.837,42.75c-0.101,0-0.3,0.6-0.3,0.7c-0.9,1.2-0.7,2.2-1.4,3.5c-0.6,1.2-0.6,1.5-1.8,3.4
		c-0.2,0.5-0.5,0.9-0.7,1.3c-0.8,1.4-1.4,2.8-2.301,4.1c-1.1,1.6-1.899,3.3-2.899,4.9c-1.9,3-4.101,7.5-8.001,8.201
		c-10.301,1.8-10.4-17.301-10.2-23.202c0.1-2.3,0-4.7,0.3-6.9c0.1-1.2,0.4-2.2,0.9-3.2c0.3-0.6,0.699-1.1,1.6-1
		c0.2,0.1,0.4,0.1,0.5,0c0.7-0.6,1.4-0.2,2.2,0c0.9,0.3,1.8,0.5,2.7,1.1c0.8,0.4,1.2,1,1.3,1.8c0,0.7-0.1,1.3-0.1,2l-0.4,6.5
		c0,0.7-0.1,1.4,0.101,2.1c0.5,2.3,0.3,4.5,0.5,6.8c0.1,1.4,0,6.601,1.5,7.201c1.8,0.8,6-7.401,7.2-9.201c0.4-0.6,1.4-2.6,2-2.9
		c0.2-0.1,0.3-0.4,0.4-0.6c0.7-1.3,1.2-1.6,2-2.8c0.2-0.5,0.7-0.3,1.1-0.6c0.601-0.5,1.2-1.1,1.601-1.8c0.7-0.7,1.2-1.8,1.7-2.6
		c0.2-0.3,0.399-0.4,0.7-0.2C224.337,41.549,223.937,42.449,223.837,42.75z M198.635,23.248c1.101-0.6,2.301-1,3.801-0.7
		c1.8-0.1,3.4,0.3,4.8,1.5c0.5,0.4,0.801,0.9,0.801,1.4c0.3,1.7,0,3.2-1.101,4.5c-1.399,1.5-3.2,1.4-5.5,0.2
		c-0.7-0.4-1.3-0.9-1.8-1.5l-1.501-1.9C197.035,25.648,197.335,23.948,198.635,23.248z"/>
	<path fill="#F9B39B" d="M251.936,43.049c-0.399,1.1-0.5,1.3-1.5,3.4l-0.6,1.2c-0.601,1.4-1.301,2.8-2,4.1
		c-1.301,2.7-2.101,3.9-3.001,5.5c-1.3,2.5-6.4,11.601-9.101,14.201c-2.6,3.5-6.1,6.3-10.801,4.5c-5.6-2.101-7.9-8.501-8.3-14.001
		c-0.2-2-0.4-4.101-0.3-6.201c0.1-2.6-0.101-5.3,0.1-7.8c0.1-2.2,0.3-3.9,0.6-6.101c0.301-2.4,0.5-5.4,0.9-7.8
		c0.1-0.2,0.3-2.7,0.5-4.3c-1.1,0-0.9,0.2-1.9,0.4c-1,0.2-1.899,0.3-2.5,0.2c-1.6-0.2-2.2-0.5-3.6-1.5
		c-0.601-0.5-1.101-0.8-1.301-1.4c-0.3-0.6-0.3-0.9,0.4-0.8c1.1,0,2.2-0.2,3.4-0.2c1.3,0.1,1.399-0.1,2.7-0.4
		c2.1-0.5,0.899-0.7,2.899-1.1c1.001-0.1,1.001-0.2,1.301-1c0.899-3.4,1.6-6.8,2.3-10.401c0.3-1.5,0.601-3.1,1.2-4.6
		c0-0.1,0-0.3,0.1-0.4c0.301-1.5,1.4-2.4,3.001-2.2c1.199,0.3,2.3,0.4,3.3,1.2c0.6,0.5,1.2,1.1,1.3,2c0.3,1.3,0.7,2.5,0.3,3.8v0.2
		c0.2,2,0,4.101-0.199,6c-0.101,0.4,0.199,0.4,0.399,0.3c0.601-0.2,1.101-0.5,1.601-0.7c2-0.7,3.8-1.4,5.8-1.8
		c0.601-0.2,1-0.3,1.5-0.6c0.601-0.4,1.2-0.5,1.801-0.3c0.899,0.1,1.2,1.2,0.7,2c-0.801,1.1-2,1.6-3.301,1.6c-1.3,0-2.4,0.7-3.4,1.4
		c-1.8,1.3-4.2,2.4-6.1,3.4c-0.5,0.3-0.7,0.7-0.7,1.2c0,0.4-0.3,1.6-0.5,3c-0.2,1.5-0.5,3.4-0.5,3.9c-0.5,3.4-0.601,6.3-0.9,9.701
		l-0.5,9.3c0,1.1-0.1,3.701,0,4.801l0.3,5.3l0.3,3.9c0.4,5.2,2.4,5.601,5.9,1.2l1.101-1.4c0.9-1.2,1.5-2.3,2.2-3.2
		c0.6-0.7,0.8-1.3,1.4-2.3c0.6-1,1.199-2.2,1.899-3.2c0.3-0.4,1.101-2.5,1.7-2.8c0.5-0.7,0.9-1.4,1.101-1.9
		c0.8-1.3,1.199-2.1,1.8-3.3c0.4-0.5,1.2-2.6,1.7-2.9c0.2-0.1,0.3-0.3,0.399-0.5c0.601-1.4,1.101-1.7,1.7-2.9c0.2-0.4,0.7-0.3,1-0.6
		c0.4-0.6,1-1.2,1.4-1.7l1.5-2.9c0.2-0.1,0.601-0.3,0.9-0.1c0.3,0.2,0,1.1-0.101,1.4c0,0-0.1,0.1-0.199,0.7
		C252.235,40.849,252.536,41.75,251.936,43.049z"/>
	<path fill="#F9B39B" d="M275.537,42.75c0,0-0.1,0.1-0.3,0.6c-1,1.4-0.7,2.2-1.4,3.5c-0.5,1.2-0.6,1.5-1.4,2.8
		c-0.1,0.4-0.2,0.7-0.399,1c-0.801,1.3-1.4,2.7-2.101,4.1c-0.2,0.4-0.399,0.8-0.7,1.2l-3,4.6c-0.1,0.3-0.3,0.6-0.5,0.8
		c-0.2,0.5-0.5,0.9-0.8,1.3c-0.4,0.7-0.7,1.5-1.3,2.1l-0.301,0.3c0,0-0.1,0.1-0.1,0.2c-1.101,1.1-2.101,3-3.101,4.2
		c-0.8,0.9-1.5,1.9-2.399,2.6c-1.2,1.2-2.501,2.3-4.001,3.2l-1.2,0.7c-0.699,0.4-1.5,0.7-2.3,0.5c-0.1,0-0.2-0.1-0.3-0.1
		c-1.2,0.4-2-0.8-3-1.3l-2-1c-0.7-0.3-1.2-0.9-1.601-1.5c-0.6-1-1.4-1.9-1.9-3c-0.899-2-1.8-4-2.2-6.201
		c-0.899-5.1-1.1-10.4-1-15.601c0.101-2.7,0.4-5.4,0.7-8.1c0.3-2.3,0.601-4.5,0.7-6.801c0-0.7,0.2-1.4,0.3-2.1
		c0.5-2.8,1.101-5.5,1.801-8.2c1.1-4.3,2.8-8.5,4.6-12.601c0.7-1.9,1.7-3.6,3.101-5.1c0.6-0.7,1.3-1.5,2.3-1.7
		c0.2,0,0.4-0.1,0.601-0.2c1-0.6,2.1-0.9,3.2-0.9l0.8-0.2c0.2-0.1,0.5-0.1,0.7,0c1,0.5,2,0.8,2.9,1.6c0.699,0.6,1.399,1.3,1.6,2.3
		c0.3,0.9,0.4,1.8,0.5,2.8l0.2,1.4c-0.3,1.9-0.3,3.8-0.7,5.601c-0.3,1.9-0.7,3.7-1.1,5.6c-0.7,3.1-1.801,6-2.9,9l-0.8,2.1
		c-1.001,3-2.4,5.9-3.701,8.801c-0.8,1.8-1.6,3.5-2.5,5.2c-0.399,0.8-1,1.4-1.399,2.2c-0.801,1.4-1.101,2.9-1.2,4.4
		c-0.101,1.4,0.1,2.8-0.2,4.2c-0.1,0.4,0.1,0.8,0.1,1.3c0.2,1-0.1,2.101,0.101,3.2c0.1,1.2,0.2,2.4,0.399,3.601
		c0,0.3,0.101,0.5,0.101,0.8c0,1.3,0.3,2.4,0.8,3.601c0.1,0.3,0.4,0.6,0.601,0.9c0.399,0.4,0.8,0.4,1.399,0.3
		c1.601-0.3,5.101-4.2,6.7-5.8c2.301-3.2,5.501-7.9,6.201-8.9c0.899-1.2,1.3-2.1,2.1-3.3c0.4-0.5,1.4-2.6,2-2.9
		c0.2-0.1,0.3-0.3,0.4-0.5c0.7-1.3,1.2-1.7,2-2.9c0.2-0.4,0.7-0.3,1.1-0.6c0.5-0.5,1.101-1,1.601-1.7c0.6-0.7,1.2-1.8,1.7-2.6
		c0.2-0.2,0.4-0.4,0.7-0.2C275.938,41.549,275.737,42.449,275.537,42.75z M248.636,40.149c0,0.2,0,0.4,0.199,0.4
		c0.2,0.1,0.4-0.1,0.5-0.2c0-0.1,0.101-0.1,0.101-0.2c0.6-0.9,1.1-1.7,1.5-2.7c0.8-1.8,1.6-3.601,2.3-5.4l2.601-7
		c0.8-1.9,0.8-3.9,1.5-5.9c0.3-1,0.3-2.1,0.8-3.1c0.101-0.2,0.101-0.5,0.101-0.7c-0.101-0.9,0.199-1.8,0.3-2.8
		c0.1-0.5,0-1.1,0.1-1.6c0.3-0.8,0.4-1.5,0.2-2.3v-0.7c0.1-0.7-0.2-1.2-0.6-1.7c-0.5-0.7-1.2-0.6-1.7,0s-0.9,1.3-1.2,2
		c-0.601,1.7-1.101,3.3-1.601,5c-0.3,0.9-0.6,1.9-0.7,2.8c-0.1,0.9-0.3,1.7-0.5,2.5c-0.199,1.5-0.899,2.8-1,4.3
		c-0.199,2.1-1,4.1-1.3,6.2l-0.9,5.601c-0.199,1.6-0.199,3.1-0.699,4.6V40.149z"/>
	<path fill="#F9B39B" d="M294.636,42.75c-0.101,0-0.3,0.6-0.3,0.7c-0.9,1.2-0.7,2.2-1.4,3.5c-0.6,1.2-0.6,1.5-1.8,3.4
		c-0.2,0.5-0.5,0.9-0.7,1.3c-0.8,1.4-1.4,2.8-2.301,4.1c-1.1,1.6-1.899,3.3-2.899,4.9c-1.9,3-4.101,7.5-8.001,8.201
		c-10.301,1.8-10.4-17.301-10.2-23.202c0.1-2.3,0-4.7,0.3-6.9c0.1-1.2,0.4-2.2,0.9-3.2c0.3-0.6,0.699-1.1,1.6-1
		c0.2,0.1,0.4,0.1,0.5,0c0.7-0.6,1.4-0.2,2.2,0c0.9,0.3,1.8,0.5,2.7,1.1c0.8,0.4,1.2,1,1.3,1.8c0,0.7-0.1,1.3-0.1,2l-0.4,6.5
		c0,0.7-0.1,1.4,0.101,2.1c0.5,2.3,0.3,4.5,0.5,6.8c0.1,1.4,0,6.601,1.5,7.201c1.8,0.8,6-7.401,7.2-9.201c0.4-0.6,1.4-2.6,2-2.9
		c0.2-0.1,0.3-0.4,0.4-0.6c0.7-1.3,1.2-1.6,2-2.8c0.2-0.5,0.7-0.3,1.1-0.6c0.601-0.5,1.2-1.1,1.601-1.8c0.7-0.7,1.2-1.8,1.7-2.6
		c0.2-0.3,0.399-0.4,0.7-0.2C295.136,41.549,294.735,42.449,294.636,42.75z M269.434,23.248c1.101-0.6,2.301-1,3.801-0.7
		c1.8-0.1,3.4,0.3,4.8,1.5c0.5,0.4,0.801,0.9,0.801,1.4c0.3,1.7,0,3.2-1.101,4.5c-1.399,1.5-3.2,1.4-5.5,0.2
		c-0.7-0.4-1.3-0.9-1.8-1.5l-1.501-1.9C267.834,25.648,268.134,23.948,269.434,23.248z"/>
	<path fill="#F9B39B" d="M333.937,42.649c0,0.1-0.2,0.7-0.301,0.8c-0.899,1.2-0.6,2.1-1.3,3.5c-0.7,1.2-0.7,1.4-1.8,3.4
		c-0.3,0.4-1.5,2.8-1.8,3.2c-0.7,1.4-0.9,2.2-1.601,3.6c-1.7,3.7-2.4,4.6-4.101,7.1c-2.6,3.9-5.6,6.4-9.5,4.601
		c-2.4-1.2-3.101-3.5-3.7-6c-0.7-2.5-0.8-5.1-1-7.601c-0.101-1.1-0.2-2.3-0.2-3.4c0-0.5,0-1,0.1-1.5
		c0.101-2.2,0.101-4.4,0.101-6.601c0-2.6,0.2-5.3-0.2-7.9c-0.2-1.8-0.5-2-2.101-1.2c-0.399,0.2-0.699,0.5-1.1,0.8
		c-1.9,1.6-3,3.8-4.301,5.801c-1.1,1.7-1.6,3.5-2.5,5.3c-0.399,0.9-0.2,1.9-0.3,2.9c-0.2,1.8-0.3,3.6-0.8,5.4
		c-0.3,1.2-0.3,2.4-0.4,3.5c-0.2,2.601-0.7,5.101-1.2,7.701c-0.1,0.3-0.199,0.6-0.199,1c-0.101,0.8-0.4,1.4-1.101,1.9
		c-0.3,0.2-0.5,0.6-0.8,0.8c-0.5,0.4-1.9,0.5-2.7,0.3c-0.601-0.1-0.5,0.5-0.7,0.8c-1.601-0.7-2.4-2.2-3.7-3.1
		c-0.601-0.5-0.7-1.2-0.7-2c-0.1-3,0.3-6.101,0.8-9.101c0.101-1.2,0.4-2.4,0.4-3.601c0-3,0.6-6,1-9c0.2-1.2,0.3-2.4,0.4-3.6
		c0.1-2.5,2.2-13.501,6.2-8.601c0.7,0.9,1.4,1.8,2.4,2.4c0.5,0.3,0.899,0.8,1.199,1.4c0.101,0.3,0.2,0.6,0.601,0.8
		c1.3-1.1,2.1-2.601,3.4-3.701c2.3-2.1,5-2.7,8-1.9c3.5,1,5.501,3.4,6.501,6.8c0.6,1.9,0.399,3.8,0.199,5.8
		c-0.1,1.6,0,3.3,0.101,4.9c0.1,1,0.2,2,0.1,3v0.3c-0.1,0.8,0.2,1.5,0.101,2.3c0,1.5-0.7,5.2,0.5,6.6c1.8,2,3.5-2.3,4.6-3.9
		c0.801-1.3,1.301-2.7,2.2-3.9c0.4-0.5,1.4-2.5,2-2.9c0.2-0.1,0.301-0.3,0.4-0.5c0.7-1.3,1.2-1.6,1.9-2.9c0.3-0.4,0.8-0.2,1.1-0.5
		c0.601-0.6,1.2-1.1,1.7-1.8c0.5-0.8,1.101-1.9,1.7-2.7c0.1-0.2,0.4-0.4,0.7-0.2C334.437,41.449,334.137,42.349,333.937,42.649z"/>
	<path fill="#F9B39B" d="M332.033,63.651c1.5-0.4,2.5,0.4,3.3,1.2c0.7,0.8,1.2,1.9,1.3,3c0.101,1.1-0.399,2.1-0.899,3
		c-0.2,0.3-0.4,0.5-0.7,0.7c-1,0.6-2.101,0.9-3.2,0.9c-1.7,0.1-3.4-1.3-3.9-2.9c-0.1-0.2-0.2-0.4-0.1-0.7
		c0.3-1.1,0.399-2.2,0.899-3.2C329.433,64.151,330.433,63.351,332.033,63.651z"/>
</g>
<g>
</g>
<g>
</g>
<g>
</g>
<g>
</g>
<g>
</g>
<g>
</g>
</svg>
