<?xml version="1.0" encoding="utf-8"?>
<!-- Generator: Adobe Illustrator 16.0.0, SVG Export Plug-In . SVG Version: 6.00 Build 0)  -->
<!DOCTYPE svg PUBLIC "-//W3C//DTD SVG 1.1//EN" "http://www.w3.org/Graphics/SVG/1.1/DTD/svg11.dtd">
<svg version="1.1" id="Layer_1" xmlns="http://www.w3.org/2000/svg" xmlns:xlink="http://www.w3.org/1999/xlink" x="0px" y="0px"
	 width="151px" height="73px" viewBox="0 0 151 73" enable-background="new 0 0 151 73" xml:space="preserve">
<g>
	<rect x="7" y="12" fill="none" width="494" height="185"/>
	<path fill="#359EA2" d="M59.441,5.989c0,0.157-0.157,1.055-0.469,2.695C57.058,19.7,55.71,29.095,54.93,36.868
		c-0.665,6.914-1.211,14.395-1.641,22.441l-0.293,6.094c0,0.743-0.059,1.856-0.176,3.34c-0.196,0.898-0.762,1.21-1.699,0.938
		c-0.117-0.04-0.215-0.117-0.293-0.234L50.77,69.68c-0.274,0.195-0.723,0.116-1.348-0.235c-3.907-2.937-8.477-7.577-13.711-13.921
		c-5.625-6.813-10.274-13.726-13.945-20.736c-2.266-4.229-3.907-8.067-4.922-11.514c-1.485,10.586-2.598,22.598-3.34,36.035
		l-0.293,6.094c0,0.743-0.059,1.856-0.176,3.34c-0.196,0.898-0.762,1.21-1.699,0.938c-0.313-0.117-0.527-0.508-0.645-1.172
		c-0.391-8.906-0.274-19.55,0.352-31.934c0.39-7.383,1.132-14.667,2.227-21.855c0.312-2.07,0.917-5.078,1.816-9.023
		c0.078-0.273,0.234-0.664,0.469-1.172c0.234-0.273,0.898-0.449,1.992-0.527c0.586-0.078,1.055,0,1.406,0.234
		c0.507,0.274,0.742,0.86,0.703,1.758c0,0.117-0.157,1.016-0.469,2.695L18.602,12.2c0.742,0.157,1.191,0.899,1.348,2.227
		c0.352,3.321,1.289,7.031,2.813,11.133c2.813,7.54,7.109,15.469,12.891,23.789c5.273,7.617,10.195,13.516,14.766,17.695
		c-0.313-8.632-0.176-18.789,0.41-30.469c0.39-7.383,1.132-14.667,2.227-21.855c0.312-2.07,0.917-5.078,1.816-9.023
		c0.078-0.273,0.253-0.664,0.527-1.172c0.195-0.273,0.839-0.449,1.934-0.527c0.586-0.078,1.055,0,1.406,0.234
		C59.246,4.505,59.48,5.091,59.441,5.989z"/>
	<path fill="#359EA2" d="M88.328,55.618c0.39,0.117,0.253,0.489-0.41,1.113c-2.266,2.109-5.566,3.145-9.902,3.105
		c-0.547,0-1.25-0.039-2.109-0.117c-0.665,1.68-1.523,3.164-2.578,4.453c-2.188,2.813-4.688,4.219-7.5,4.219
		c-2.071,0-3.809-0.683-5.215-2.051c-1.797-1.758-2.675-4.121-2.637-7.09c0.039-2.734,1.172-5.508,3.398-8.32
		c0.703-0.859,1.816-1.855,3.34-2.988c0.117-1.093,0.449-2.031,0.996-2.813c0.859-1.172,2.109-1.758,3.75-1.758
		c2.382,0,4.277,0.752,5.684,2.256c1.406,1.504,2.109,3.682,2.109,6.533c0.039,1.992-0.196,3.809-0.703,5.449
		c3.828,0.469,7.05-0.039,9.668-1.523C87.078,55.579,87.781,55.423,88.328,55.618z M72.801,59.042
		c-1.211-0.35-2.227-0.816-3.047-1.4c-1.758-1.206-3.262-3.346-4.512-6.419c-2.422,2.724-3.672,5.389-3.75,7.994
		c-0.04,1.985,0.449,3.619,1.465,4.903c0.742,0.934,1.699,1.42,2.871,1.458c1.875,0,3.691-1.244,5.449-3.734
		C71.863,60.988,72.371,60.054,72.801,59.042z M74.207,52.127c0.039-2.02-0.41-3.573-1.348-4.662
		c-0.665-0.815-1.661-1.242-2.988-1.282c-0.86,0-1.446,0.447-1.758,1.34c-0.391,1.205-0.352,2.331,0.117,3.38
		c0.625,1.398,1.035,2.292,1.23,2.681c0.546,0.971,1.191,1.729,1.934,2.272c0.546,0.388,1.21,0.719,1.992,0.991
		C73.894,55.255,74.167,53.682,74.207,52.127z"/>
	<path fill="#359EA2" d="M112.879,32.239c-0.079,0.235-0.352,0.412-0.819,0.529c-4.958,0.235-11.439,0.333-19.442,0.294
		l-0.553,2.806c-0.933,4.806-1.555,8.283-1.866,10.431c-0.583,3.908-0.895,7.404-0.933,10.49c0,3.984,0.566,6.856,1.699,8.614
		c0.938,1.368,2.344,2.09,4.219,2.168c1.562,0.04,3.144-0.586,4.746-1.875c2.461-1.953,4.688-4.805,6.68-8.555
		c0.117-0.312,0.332-0.703,0.645-1.172c0.664-0.429,1.152-0.507,1.465-0.234c0.234,0.196,0.234,0.645,0,1.348
		c-1.758,4.336-4.024,7.696-6.797,10.078c-2.305,2.031-4.551,3.047-6.738,3.047c-2.266,0.039-4.122-0.645-5.566-2.051
		c-1.563-1.445-2.598-3.633-3.105-6.563c-0.508-2.617-0.606-6.171-0.293-10.664c0.273-4.492,1.113-10.449,2.52-17.871L83.992,33
		c-2.968,0.04-7.363-0.097-13.184-0.41c-0.39-0.039-0.898-0.176-1.523-0.41c-0.195-0.117-0.39-0.605-0.586-1.465
		c-0.117-0.429-0.117-0.8,0-1.113c0.157-0.507,0.684-0.762,1.582-0.762c1.719,0.04,4.786,0.176,9.199,0.41l9.902,0.469l0.352-1.465
		c0.195-0.976,0.41-1.894,0.645-2.754c0.078-0.429,0.273-1.015,0.586-1.758c0.195-0.234,0.722-0.429,1.582-0.586
		c0.586-0.117,1.025,0,1.318,0.351s0.361,0.954,0.205,1.811c-0.088,0.584-0.264,1.461-0.526,2.629l-0.294,1.94l17.93,0.94
		c0.273-0.039,0.645-0.02,1.113,0.059C112.8,31.24,112.996,31.69,112.879,32.239z"/>
	<path fill="#359EA2" d="M126.063,54.329c-0.079,0.352-0.176,0.684-0.293,0.996c-2.071,4.649-4.297,8.106-6.68,10.371
		c-2.618,2.539-5.508,3.828-8.672,3.867c-3.79,0.078-6.826-1.055-9.111-3.398s-3.428-5.391-3.428-9.141
		c0-4.414,1.523-8.3,4.57-11.66c1.992-2.187,4.003-3.281,6.035-3.281c1.992,0,3.613,0.801,4.863,2.402
		c0.82,1.055,1.132,2.149,0.938,3.281c-0.547,2.93-2.109,6.192-4.688,9.785c-1.758,2.5-3.731,4.668-5.918,6.504
		c1.601,1.641,3.847,2.5,6.738,2.578c2.031,0.04,3.867-0.507,5.508-1.641c2.656-1.875,5.175-5,7.559-9.375
		c0.352-0.664,1.035-1.386,2.051-2.168c0.195,0,0.352,0.059,0.469,0.176S126.14,53.977,126.063,54.329z M111.004,47.18
		c0-0.273-0.196-0.586-0.586-0.938c-0.625-0.507-1.27-0.742-1.934-0.703c-1.406,0.04-2.852,1.153-4.336,3.34
		c-1.836,2.695-2.774,5.411-2.813,8.145c-0.04,1.758,0.273,3.398,0.938,4.922c1.523-1.523,2.949-3.242,4.277-5.156
		C109.05,53.157,110.535,49.954,111.004,47.18z"/>
	<path fill="#359EA2" d="M146.395,61.887c0.039,0.117,0,0.293-0.117,0.527c-2.461,2.93-5.508,4.98-9.141,6.152
		c-2.227,0.703-4.942,0.957-8.145,0.762c-1.523-0.117-2.871-0.479-4.043-1.084s-2.481-1.67-3.926-3.193
		c-0.196-0.195-0.527-0.566-0.996-1.113c-0.234-0.195-0.508-0.507-0.82-0.938c-0.04-0.312,0.048-0.625,0.264-0.938
		c0.214-0.312,0.478-0.449,0.791-0.41c1.796-4.296,3.867-9.218,6.211-14.766c0.195-0.781,0.683-1.796,1.465-3.047
		c0.156-0.117,0.703-0.097,1.641,0.059c0.39,0.078,0.722,0.175,0.996,0.291c0.39,0.233,0.546,0.564,0.469,0.991
		c0,0.233-0.254,0.933-0.762,2.099c0.234,0.233,0.449,0.486,0.645,0.757c0.703,1.011,1.348,2.041,1.934,3.09
		c2.031,3.809,2.988,7.151,2.871,10.026c-0.04,2.06-0.567,3.848-1.582,5.363c3.867-0.458,7.285-1.948,10.254-4.47
		c0.156-0.229,0.449-0.478,0.879-0.745C145.789,61.263,146.16,61.458,146.395,61.887z M132.273,61.243
		c-0.04-2.304-1.289-5.644-3.75-10.02l-0.352,0.762c-1.797,3.79-3.907,7.422-6.328,10.898c1.328,1.289,2.441,2.188,3.34,2.695
		c1.21,0.665,2.48,0.977,3.809,0.938c0.976-0.039,1.738-0.469,2.285-1.289C131.98,64.212,132.312,62.883,132.273,61.243z"/>
</g>
<g>
</g>
<g>
</g>
<g>
</g>
<g>
</g>
<g>
</g>
<g>
</g>
</svg>
