<?xml version="1.0" encoding="utf-8"?>
<!-- Generator: Adobe Illustrator 16.0.0, SVG Export Plug-In . SVG Version: 6.00 Build 0)  -->
<!DOCTYPE svg PUBLIC "-//W3C//DTD SVG 1.1//EN" "http://www.w3.org/Graphics/SVG/1.1/DTD/svg11.dtd">
<svg version="1.1" id="Layer_1" xmlns="http://www.w3.org/2000/svg" xmlns:xlink="http://www.w3.org/1999/xlink" x="0px" y="0px"
	 width="157.895px" height="75.439px" viewBox="0 0 157.895 75.439" enable-background="new 0 0 157.895 75.439"
	 xml:space="preserve">
<g>
	<rect x="7.895" y="-8.771" fill="none" width="547.368" height="171.93"/>
	<path fill="#369EA2" d="M59.598,8.255c-0.5,2.1-0.4,4.4-0.9,6.5c-0.2,1.2-0.4,2.5-0.7,3.8c-0.7,3.2-1.6,6.4-1.8,9.7
		c0,0.6-0.1,1.2-0.2,1.7c-0.4,1.7-0.4,3.4-0.3,5.2c0.1,1.2-0.1,2.5-0.2,3.701c-0.1,1-0.1,2-0.5,2.9c-0.1,0.2-0.1,0.5-0.1,0.8
		c0.1,2.5-0.4,4.9-0.7,7.4c-0.3,1.6-0.7,3.2-1.1,4.8c-0.1,0.4-0.2,0.7-0.2,1.1c-0.1,2.1-0.6,4.1-1.2,6.1c-0.4,0.9-0.4,1.9-0.4,2.9
		c0.1,1.5-0.3,2.9-0.9,4.3c-0.2,0.4-0.3,0.8-0.3,1.3c0,0.3-0.1,0.7-0.3,0.9c-0.7,0.9-1.6,1.3-2.6,1.6c-0.6,0.2-1.2,0.1-1.6-0.5v-0.1
		l-0.2-0.9c-0.8-0.3-1.6-0.7-2.3-1.2c-1.2-0.8-2-2.2-2.5-3.601c-1.5-4.3-2.8-8.7-4-13.101l-2.1-6.701l-1.4-5
		c-0.1-0.4-0.2-0.8-0.5-1.2c-0.3,0.2-0.4,0.5-0.4,0.7c-0.2,2.5-1,4.8-1.3,7.2c-0.1,0.6-0.2,1.3,0.2,1.9c0.2,0.4,0.2,0.9,0.1,1.3
		c-0.4,1.7-0.5,3.5-0.9,5.201c-0.4,1.2-0.5,2.4-0.6,3.6s-0.2,2.3-0.5,3.4c-0.5,1.3-0.6,2.8-1.2,4.101c-0.1,0.3-0.3,0.6-0.5,0.8
		l-0.8,1c-0.4,0.7-0.8,1.5-1.8,1.5c-0.1,0-0.2,0.1-0.3,0.2c-1,1-2.2,0.9-3.5,1c-0.6,0-1.1-0.1-1.6-0.4l-0.1-0.3l-0.9-0.3
		c-0.9-0.3-1.5-0.9-1.9-1.7c-0.7-0.9-1-2.1-1.3-3.2c-0.7-2.5-1-5.1-1.5-7.6c-0.4-2.3-0.9-4.5-1.4-6.701c-0.8-3.6-1.3-7.1-1.6-10.701
		c-0.3-3.1-0.6-6.2-1.4-9.2c-0.6-3-1.1-6-1.4-9.001c-0.2-2.4-0.7-4.9-1.3-7.3c-0.4-1.6-1.4-2.7-2.8-3.5c-0.7-0.4-1.1-1-1.3-1.8
		c-0.3-0.8-0.1-1.3,0.6-1.8c2.4-1.6,5-2,7.7-0.6c0.2,0,0.3,0.1,0.4,0.1v0.4c1.2,0.8,2.3,1.8,3.2,3c0.4,0.5,0.6,1,0.9,1.5
		c0.9,1.8,1.9,3.6,2.6,5.601c1,3.1,1.5,6.3,2.2,9.4c0.8,3,1.5,5.9,2.2,8.9c0.5,2.2,0.9,4.5,1.1,6.701c0.2,1.5,0.5,2.9,0.9,4.4l1,4.2
		c0,0.4,0,0.9,0.5,1.3c0.5-1,0.5-2.1,0.7-3.1c0.4-1.8,0.5-3.7,1-5.4c0.5-1.9,0.6-3.8,0.9-5.6c0.3-2,0.9-3.9,1.7-5.701
		c0.4-1,0.5-1.9,0.3-3c-0.8-3.6-1.3-7.201-1.7-10.901c-0.4-2.3-0.6-4.6-0.6-7c0-0.8,0.2-1.7,0.4-2.5c0.2-0.9,0.7-1.3,1.6-1.4h1.6
		v0.3c1.3,0.3,2.5,1,3.6,2.1c1,0.9,1.8,2,2.8,3c0.4,0.4,0.6,0.9,0.7,1.5c0.4,1.2,0.6,2.5,0.7,3.8c0.1,1.2,0.6,2.3,0.8,3.5
		c0.3,2,0.6,3.9,0.8,5.9c0.1,1.2,0.3,2.4,0.5,3.6c0.7,3.4,1.6,6.801,2.2,10.301c0.5,2.8,1.601,5.5,2.2,8.201
		c0.5,1.9,0.9,3.8,1.3,5.7c0,0.3,0.1,0.7,0.4,1c0.2-0.4,0.2-0.7,0.2-1c0-1.8,0.4-3.5,0.8-5.2c0.5-1.7,0.6-3.3,0.8-4.9
		c0.3-2.3,0.6-4.6,0.8-6.9c0.2-1.5,0.3-3.1,0.4-4.6c0.1-1.3,0.1-2.7,0.5-4c0.2-0.5,0.2-1.1,0.2-1.6c-0.2-2.5,0.3-4.9,1-7.2
		l1.3-4.101c0.8-2.6,1.5-5.2,2.2-7.7c0.4-1.4,1.2-2.601,2.1-3.601c0.3-0.3,0.7-0.6,1.1-0.3C59.598,7.355,59.698,7.755,59.598,8.255z
		"/>
	<path fill="#369EA2" d="M97.395,35.357c0,0.2-0.1,0.4-0.2,0.6c-1.4,3.4-1.8,5.6-3.8,9c-1.5,2.5-3.3,4.9-5.8,6.4l-0.7,0.4
		c-1.9,1.3-3.3,1-3.3,1.4c0,1.4-0.2,3.2-0.4,5c-0.4,2.3-1.1,5.5-1.9,7.701c-0.9,2.3-2.3,4.1-4.3,5.4c-1.8,1.2-3.9,1.6-5.9,0.6
		l-1.4-0.6c-2.6-0.9-4.4-2.5-5.9-4.9c-1.4-2.3-2.1-2.8-3.2-6.101c-0.9-2.5-1.7-6.7-1.7-9.4c0-0.9,0-1.7,0.1-2.6
		c0.7-3.2,0.9-6.9,1.8-10.101c0.6-2,1.4-3.7,2.5-5.4c0.9-1.3,2.2-1.9,3-3.1c0.6-0.9,1.5-1.4,2.5-1.7c1.3-0.3,2.6-0.1,3.9,0
		c0.3,0,0.6,0.2,0.7,0.3c1.3,1.4,2.9,2.2,4.3,3.5c1.4,1.2,2.5,2.7,3,4.6c0.9,3.5,2.3,6.8,2.4,10.5c0,0.5-0.1,0.8,0.3,0.7
		c1.6-0.4,2.1-0.6,2.9-1.1l0.9-0.6c0.7-0.5,1.3-1.2,1.8-1.7c0.9-1.3,1.8-2.8,2.5-4.201c0.2-0.3,0.4-0.6,0.7-0.7
		c1.2-0.6,2-1.6,2.9-2.5c0.5-0.6,1.1-1,1.3-1.8c0.1-0.3,0.4-0.3,0.7-0.3C97.395,34.757,97.495,35.057,97.395,35.357z M78.994,52.858
		c-1,0.2-1.8-0.3-2.7-0.7c-1.5-0.6-2.8-1.7-4-2.9c-0.8-0.7-1.3-1.7-1.8-2.6c-0.7-1.2-1.4-2.4-1.3-3.8c0-0.3-0.2-0.5-0.3-0.4
		c-1.6,4.5-2.8,8.7-1.8,13.901l1.2,5c0.4,1.7,1.2,3.3,2.5,4.5c0.7,0.7,1.5,1.4,2.5,1.6c3.1,0.7,4.7-3.3,5.3-5.8
		C78.794,60.858,80.194,52.658,78.994,52.858z M74.194,40.757c0.2,1.2,0.5,2.4,1,3.5c0.5,1.2,1.2,2.3,2.4,3.101
		c0.5,0.3,1,0.6,1.7,0.5c0.1-0.3,0.1-0.5,0.1-0.7c0-2.4-0.8-4.7-1.6-6.9c-0.5-1.2-1.1-2.4-1.7-3.6c-0.3-0.6-0.6-1.1-1.1-1.6
		c-0.4,0.9-0.4,1.7-0.6,2.6C74.194,38.657,73.994,39.757,74.194,40.757z"/>
	<path fill="#369EA2" d="M101.392,69.959c-0.4,0.2-0.7-0.5-1.2-0.3c-0.4,0.1-0.7,0.3-1.2,0.3c-1,0.2-1.8-0.5-2.6-0.9
		c-0.1-0.1-0.2-0.2-0.3-0.2c-0.8-0.5-1.2-1.3-1.3-2.3c-0.2-2.2-0.4-4.5-0.7-6.701c-0.5-3-0.8-6.2-1.2-9.201
		c-0.6-3.5-0.9-6.9-1.6-10.4c-0.5-2.3-0.9-4.6-1.7-6.8c-0.2-0.5-0.6-0.9-0.2-1.5c0.1-0.2,0-0.2,0-0.2c-0.3-0.6,0-0.9,0.2-1.2
		c0.4-0.4,0.8-0.9,1.4-1c0.9-0.2,1.7,0,2.5-0.1h0.2c2,0.6,4.101,1.1,5.5,3.2c0.1,0.2,0.3,0.3,0.4,0.4c0.7,0.4,1.1,1.1,1.5,1.8
		c0.8,1.6,1.2,3.3,1.4,5c0.1,0.7,0.2,1.2,0.2,1.8c0,0.2,0.1,0.5,0.2,0.5c0.2,0,0.3-0.2,0.4-0.4c0-0.1,0.1-0.2,0.1-0.3
		c0.3-1.4,0.8-2.5,1.5-3.7c0.9-1.7,1.8-3.5,3-5.101c0.8-1.1,1.5-2.4,2.4-3.3c1.1-1.3,2.2-2.3,3.8-2.5c1.4-0.3,2.6-0.5,3.8,0
		c0.8,0.3,1.3,0.6,1.8,1.2c0.3,0.5,0.6,1,1.1,1.4c0.2,0.2,0.5,0.5,0.6,0.8c0.7,1.5-0.4,2.8-1.5,3.1c-1.1,0.4-2.1,0-2.9-1.2
		c-0.4-0.8-1.2-1-1.7-1.4c-0.8,0.2-1.8,0-2.5,0.8c-1.3,1.4-2.2,3.2-3.1,5c-0.5,1-1,2.1-1.3,3.3c-0.1,0.7-0.4,1.2-0.8,1.7
		c-0.3,0.5-0.4,1-0.5,1.7c-0.1,0.8-0.3,1.5-0.6,2.4c-0.4,1.3-0.7,2.8-0.9,4.3l-0.5,5.4c-0.1,1.5-0.4,2.9-0.4,4.4
		c-0.1,0.5-0.2,1-0.2,1.7c0,0.6,0,1.2,0.2,1.9c0.1,0.5-0.1,1-0.2,1.5c-0.3,1.4-0.7,2.7-1.3,3.9c-0.4,0.7-1.1,1.2-1.7,1.2H101.392z"
		/>
	<path fill="#369EA2" d="M151.091,66.559c-4.3-5.3-7.9-9.901-12.9-12.201c-0.6-0.2-1.2-0.4-1.8-0.8c-0.7-0.3-1.4-0.1-2,0.1
		c-0.4,0-0.4,0.4-0.4,0.6c0.1,1.1,0.1,2.1,0.1,3.1c0.4,2.8,0.4,5.5-0.2,8.3c-0.1,0.4-0.1,0.9-0.1,1.4c-0.1,1.4-2.3,2.5-3.8,1.6
		c-1.4-0.6-2.8-1.1-4.1-1.7c-0.5-0.1-0.8-0.4-1.2-0.7c0-0.5,0.1-1.1,0.1-1.6l-0.3-0.3l-0.8-0.9c0.1-2,0.4-3.9,0.6-5.9l-0.2-0.8
		c-0.5-2.4-0.5-4.8-0.8-7.201c-0.2-2.7-0.2-5.5-0.2-8.3c-0.1-5.3,0.2-10.401,0.7-15.601c0.5-4.7,0.4-9.4,0.6-14.101
		c0.1-1.6,0.6-4.101,1.3-5.601c0.6-1.3,4.2-5.7,9.201-3.3c3.5,1.6,5.4,4.701,5.6,7.901c0.1,2,0.2,3.9-0.2,5.9
		c-0.1,0.3-0.1,0.7-0.1,1.1c0.1,3-0.4,5.9-2,8.701l-0.4,0.8c-0.3,1.7-1.4,3.4-2.6,4.9c-0.1,0.3-0.2,0.5-0.5,0.7
		c-0.6,0.3-0.9,0.6-1.2,1v0.8c0.2,1.2-0.2,2.3,0,3.7c1.7-1.2,3-2.7,4.5-4c1.5-1.3,3.1-1.8,5.101-2.3c1.1-0.3,2.3-0.4,3.3-0.4
		c2,0,4.2,0.6,5.8,1.6c2.601,1.5,2.7,3.601,2.7,6.5c0,0,0,0.2-0.1,0.3c-0.7,1.4-1.3,2.9-2.4,4c-0.8,1-1.8,1.8-2.9,2.5
		c-1.3,1-2.8,1.6-4.3,2.101c-1.5,0.7-2.7,1.5-4.3,2c0.4,0.6,1.5,2,2.1,2.1c0.9,0.3,1.6,0.9,2.2,1.3c1.9,1.6,3.7,3.101,5.1,4.8
		c0.7,0.8,1.3,1.6,1.7,2.4c0.9,1.4,3,3.1,3.3,4.7C155.491,67.359,153.791,69.959,151.091,66.559z M133.49,26.856
		c1.7-2.5,2.1-4.1,2.9-8c0-0.2,0.1-0.4,0.1-0.6c0-4,1.2-9-1.9-12.5c-0.4-0.6-1.1-0.7-1.9-0.9c-0.6,0-0.7,0.1-0.9,0.4
		c-0.4,0.9-0.2,3.2-0.2,4c0.1,2.4,0.3,3.2,0.3,5.5c-0.1,1.2,0,2.5-0.1,3.7c-0.3,2.8,0.1,4.8,0.7,9.3c0.1,0.1-0.2,0.4,0.4,0.5
		C133.19,27.756,133.29,27.156,133.49,26.856z M142.69,41.657c1.6-0.9,6-3.9,5.101-6.1c-1-2.3-4.7-0.4-6.101,0.2
		c-1.8,0.6-3.3,1.8-4.1,3.2c-0.2,0.2-0.4,0.5-0.7,0.6c-1.4,0.8-2,2.1-3.1,3.2c-0.1,0.2-0.4,0.5-0.3,0.7c0.2,1.3-0.1,2.6,0.2,4
		c0.9-0.3,1.5-0.7,2.1-1.2C138.09,44.757,140.391,43.257,142.69,41.657z"/>
</g>
<g>
</g>
<g>
</g>
<g>
</g>
<g>
</g>
<g>
</g>
<g>
</g>
</svg>
