<?xml version="1.0" encoding="utf-8"?>
<!-- Generator: Adobe Illustrator 16.0.0, SVG Export Plug-In . SVG Version: 6.00 Build 0)  -->
<!DOCTYPE svg PUBLIC "-//W3C//DTD SVG 1.1//EN" "http://www.w3.org/Graphics/SVG/1.1/DTD/svg11.dtd">
<svg version="1.1" id="Layer_1" xmlns="http://www.w3.org/2000/svg" xmlns:xlink="http://www.w3.org/1999/xlink" x="0px" y="0px"
	 width="143px" height="73px" viewBox="0 0 143 73" enable-background="new 0 0 143 73" xml:space="preserve">
<g>
	<path fill="#349EA2" d="M74.186,12.242c-0.065,0.879-0.277,2.49-0.635,4.834c-0.781,4.655-1.823,9.359-3.125,14.111
		c-2.8,10.026-6.071,17.904-9.814,23.633c-2.377,3.711-4.883,6.348-7.52,7.91c-2.051,1.237-4.167,1.855-6.348,1.855
		c-1.823-0.033-3.451-0.488-4.883-1.367c-2.214-1.367-3.891-3.711-5.029-7.031c-1.53,2.768-3.256,4.965-5.176,6.592
		c-2.377,2.083-4.948,3.125-7.715,3.125c-1.953,0.032-3.728-0.439-5.322-1.416c-2.019-1.172-3.744-3.011-5.176-5.518
		c-1.237-2.213-2.246-4.883-3.027-8.008c-1.107-4.557-1.66-9.31-1.66-14.258c0.065-8.919,1.172-16.031,3.32-21.338
		c0.26-0.618,0.504-1.106,0.732-1.465c0.064-0.228,0.244-0.504,0.537-0.83c0.553-0.357,1.172-0.569,1.855-0.635
		c0.521-0.064,0.879,0.082,1.074,0.439c0.293,0.554,0.146,1.709-0.439,3.467c-1.921,5.502-2.946,12.289-3.076,20.361
		c-0.098,7.227,0.846,13.314,2.832,18.262c1.139,2.832,2.539,4.867,4.199,6.104c1.236,0.944,2.62,1.433,4.15,1.465
		c1.725,0.033,3.418-0.553,5.078-1.758c2.376-1.758,4.622-4.752,6.738-8.984c-0.586-3.287-0.83-6.966-0.732-11.035
		c0.162-7.063,1.822-13.932,4.98-20.605c0.13-0.391,0.391-0.928,0.781-1.611c0.391-0.423,0.846-0.684,1.367-0.781
		c0.064-0.325,0.162-0.537,0.293-0.635c0.357-0.293,0.732-0.016,1.123,0.83c0.098,0.229,0.211,0.57,0.342,1.025
		c0.748,3.386,0.732,7.992-0.049,13.818c-0.977,7.39-2.67,13.852-5.078,19.385c0.325,1.4,0.732,2.686,1.221,3.857
		c0.813,1.889,1.855,3.271,3.125,4.15c1.009,0.717,2.213,1.074,3.613,1.074c2.148-0.032,4.272-0.992,6.372-2.881
		c2.1-1.888,4.175-4.785,6.226-8.691c3.223-6.152,6.006-14.241,8.35-24.268c0.716-2.896,1.416-6.185,2.1-9.863
		c0.098-1.139,0.423-2.832,0.977-5.078c0.162-0.391,0.699-0.846,1.611-1.367c0.455-0.293,0.846-0.293,1.172,0
		C74.039,9.541,74.25,10.582,74.186,12.242z M42.301,22.301c-0.033-0.716-0.098-1.383-0.195-2.002
		c-2.963,6.706-4.443,13.525-4.443,20.459c0,1.889,0.081,3.874,0.244,5.957c1.627-4.361,2.864-9.391,3.711-15.088
		C42.17,27.981,42.398,24.873,42.301,22.301z"/>
	<path fill="#349EA2" d="M91.031,53.648c0.325,0.098,0.211,0.407-0.342,0.928c-1.889,1.758-4.639,2.621-8.252,2.588
		c-0.456,0-1.042-0.032-1.758-0.098c-0.554,1.4-1.27,2.637-2.148,3.711c-1.823,2.344-3.906,3.516-6.25,3.516
		c-1.726,0-3.174-0.569-4.346-1.709c-1.498-1.465-2.229-3.434-2.197-5.908c0.032-2.278,0.977-4.59,2.832-6.934
		c0.586-0.716,1.514-1.546,2.783-2.49c0.098-0.911,0.374-1.692,0.83-2.344c0.716-0.977,1.758-1.465,3.125-1.465
		c1.985,0,3.564,0.627,4.736,1.88c1.172,1.254,1.758,3.068,1.758,5.444c0.032,1.66-0.163,3.174-0.586,4.541
		c3.189,0.391,5.875-0.032,8.057-1.27C89.989,53.616,90.575,53.486,91.031,53.648z M78.092,56.503
		c-1.01-0.292-1.855-0.681-2.539-1.168c-1.465-1.005-2.719-2.787-3.76-5.349c-2.019,2.27-3.061,4.49-3.125,6.662
		c-0.033,1.654,0.374,3.016,1.221,4.085c0.618,0.778,1.416,1.184,2.393,1.216c1.563,0,3.076-1.037,4.541-3.112
		C77.311,58.124,77.733,57.346,78.092,56.503z M79.264,50.74c0.032-1.684-0.342-2.978-1.123-3.885
		c-0.554-0.68-1.384-1.035-2.49-1.068c-0.717,0-1.205,0.372-1.465,1.117c-0.326,1.004-0.293,1.942,0.098,2.816
		c0.521,1.166,0.862,1.91,1.025,2.234c0.455,0.81,0.992,1.44,1.611,1.894c0.455,0.323,1.009,0.599,1.66,0.825
		C79.003,53.347,79.23,52.035,79.264,50.74z"/>
	<path fill="#349EA2" d="M113.15,59.41c-0.521,1.4-1.611,2.719-3.271,3.955s-3.239,1.871-4.736,1.904
		c-2.051,0.064-3.752-0.61-5.103-2.026c-1.352-1.416-2.06-3.475-2.124-6.177c-0.065-2.571,0.146-5.013,0.635-7.324
		c-1.563,0.488-3.093,0.57-4.59,0.244c-0.098,0-0.229-0.032-0.391-0.098c-1.66,4.102-3.305,7.292-4.932,9.57
		c-1.042,1.433-1.985,2.475-2.832,3.125c-0.228,0.163-0.391,0.244-0.488,0.244c-0.195,0-0.431-0.057-0.708-0.171
		c-0.276-0.113-0.366-0.269-0.269-0.464c0-0.064,0.293-0.423,0.879-1.074c0.488-0.553,0.977-1.221,1.465-2.002
		c1.888-2.962,3.564-6.819,5.029-11.572c-0.554-1.953-0.391-3.694,0.488-5.225c0.553-1.009,1.318-1.351,2.295-1.025
		c0.521,0.195,0.846,0.603,0.977,1.221c0.098,0.521,0,1.384-0.293,2.588c-0.163,0.619-0.358,1.254-0.586,1.904
		c0.064,0.131,0.081,0.195,0.049,0.195c1.953,0.358,3.662-0.081,5.127-1.318c0.618-0.521,1.236-0.553,1.855-0.098
		c0.65,0.456,0.83,1.059,0.537,1.807c-1.01,2.572-1.547,5.729-1.611,9.473c-0.065,1.921,0.309,3.402,1.123,4.443
		c0.813,1.042,1.969,1.596,3.467,1.66c1.465,0.033,3.141-0.797,5.029-2.49c0.325-0.423,0.846-0.992,1.563-1.709
		c0.488-0.391,0.911-0.472,1.27-0.244C113.231,58.857,113.28,59.085,113.15,59.41z"/>
	<path fill="#349EA2" d="M137.369,56.969c-0.098,0.424-0.391,0.977-0.879,1.66c-2.539,3.711-5.469,5.582-8.789,5.615
		c-4.948,0.098-8.105-2.447-9.473-7.637c-0.229-0.881,0.13-1.452,1.074-1.713c1.953-0.489,3.906-1.697,5.859-3.623
		c1.563-1.533,2.344-2.937,2.344-4.21c0-0.619-0.131-1.142-0.391-1.565c-0.261-0.425-0.505-0.637-0.732-0.637
		c-1.14,0.065-2.344,0.686-3.613,1.86c-1.107,1.012-2.23,2.414-3.369,4.208c-2.8,4.372-4.818,9.087-6.055,14.144
		c-0.229,0.946-0.83,1.354-1.807,1.224c-0.977-0.131-1.448-0.684-1.416-1.66c0.162-8.072,1.27-18.164,3.32-30.273
		c0.553-3.125,1.48-7.779,2.783-13.965c0.064-0.488,0.276-1.123,0.635-1.904c0.488-0.521,0.96-0.879,1.416-1.074
		c0.423-0.195,0.74-0.113,0.952,0.244c0.211,0.358,0.235,1.123,0.073,2.295c0,0.163-0.212,1.318-0.635,3.467
		c-2.604,13.64-4.297,24.463-5.078,32.471c1.139-2.376,2.408-4.605,3.809-6.689c1.692-2.474,3.353-4.264,4.98-5.371
		c1.367-0.879,2.701-1.318,4.004-1.318c0.846,0,1.595,0.375,2.246,1.123c0.846,0.912,1.253,2.067,1.221,3.467
		c-0.033,1.791-0.961,3.613-2.783,5.469c-2.084,2.084-4.297,3.483-6.641,4.199c1.139,3.711,3.597,5.583,7.373,5.615
		c2.441,0,5.143-1.773,8.105-5.322c0.423-0.488,0.862-0.684,1.318-0.586C137.385,56.546,137.434,56.709,137.369,56.969z"/>
</g>
<g>
</g>
<g>
</g>
<g>
</g>
<g>
</g>
<g>
</g>
<g>
</g>
</svg>
